<svg width="36" height="25" viewBox="0 0 36 25" fill="none" xmlns="http://www.w3.org/2000/svg">
<path d="M13.2374 10.784C15.3494 12.192 16.4054 14.176 16.4054 16.736C16.4054 19.232 15.6374 21.216 14.1014 22.688C12.6294 24.16 10.7414 24.896 8.43738 24.896C6.19738 24.896 4.30938 24.192 2.77338 22.784C1.30138 21.376 0.565375 19.552 0.565375 17.312C0.565375 15.072 1.26938 12.864 2.67738 10.688L9.68538 0.511999H17.5574L13.2374 10.784ZM30.9974 10.784C33.1094 12.192 34.1654 14.176 34.1654 16.736C34.1654 19.232 33.3974 21.216 31.8614 22.688C30.3894 24.16 28.5014 24.896 26.1974 24.896C23.9574 24.896 22.0694 24.192 20.5334 22.784C19.0614 21.376 18.3254 19.552 18.3254 17.312C18.3254 15.072 19.0294 12.864 20.4374 10.688L27.4454 0.511999H35.3174L30.9974 10.784Z" fill="#203764"/>
</svg>
