<svg width="23" height="23" viewBox="0 0 23 23" fill="none" xmlns="http://www.w3.org/2000/svg">
<path d="M11.7739 2.61292C9.38699 2.61292 7.0978 3.56113 5.40997 5.24895C3.72215 6.93678 2.77393 9.22597 2.77393 11.6129C2.77393 14.0099 3.70893 16.1859 5.23693 17.7989L5.74093 18.3309L4.47393 20.6129H11.7739C12.9558 20.6129 14.1262 20.3801 15.2181 19.9278C16.31 19.4755 17.3022 18.8126 18.1379 17.9769C18.9736 17.1411 19.6366 16.149 20.0889 15.0571C20.5411 13.9651 20.7739 12.7948 20.7739 11.6129C20.7739 10.431 20.5411 9.26069 20.0889 8.16876C19.6366 7.07683 18.9736 6.08468 18.1379 5.24895C17.3022 4.41323 16.31 3.75029 15.2181 3.298C14.1262 2.84571 12.9558 2.61292 11.7739 2.61292ZM0.773935 11.6129C0.773935 5.53792 5.69893 0.612915 11.7739 0.612915C17.8489 0.612915 22.7739 5.53792 22.7739 11.6129C22.7739 17.6879 17.8489 22.6129 11.7739 22.6129H1.07393L3.29393 18.6189C1.66214 16.6492 0.770669 14.1708 0.773935 11.6129Z" fill="white"/>
</svg>
