<svg width="19" height="15" viewBox="0 0 19 15" fill="none" xmlns="http://www.w3.org/2000/svg">
<path d="M2.5 14.5C2.01875 14.5 1.60692 14.3288 1.2645 13.9864C0.922083 13.644 0.750583 13.2318 0.75 12.75V2.25C0.75 1.76875 0.9215 1.35692 1.2645 1.0145C1.6075 0.672083 2.01933 0.500583 2.5 0.5H16.5C16.9813 0.5 17.3934 0.6715 17.7364 1.0145C18.0794 1.3575 18.2506 1.76933 18.25 2.25V12.75C18.25 13.2312 18.0788 13.6434 17.7364 13.9864C17.394 14.3294 16.9818 14.5006 16.5 14.5H2.5ZM9.5 8.22187C9.57292 8.22187 9.64962 8.21079 9.73012 8.18862C9.81062 8.16646 9.88704 8.13379 9.95937 8.09063L16.15 4.21875C16.2667 4.14583 16.3542 4.05483 16.4125 3.94575C16.4708 3.83667 16.5 3.71621 16.5 3.58438C16.5 3.29271 16.376 3.07396 16.1281 2.92813C15.8802 2.78229 15.625 2.78958 15.3625 2.95L9.5 6.625L3.6375 2.95C3.375 2.78958 3.11979 2.78608 2.87188 2.9395C2.62396 3.09292 2.5 3.30788 2.5 3.58438C2.5 3.73021 2.52917 3.85796 2.5875 3.96762C2.64583 4.07729 2.73333 4.161 2.85 4.21875L9.04063 8.09063C9.11354 8.13438 9.19025 8.16733 9.27075 8.1895C9.35125 8.21167 9.42767 8.22246 9.5 8.22187Z" fill="white"/>
</svg>
