<svg width="40" height="41" viewBox="0 0 40 41" fill="none" xmlns="http://www.w3.org/2000/svg">
<path d="M20 3.5H35C35.4642 3.5 35.9117 3.66145 36.2676 3.95312L36.4141 4.08594C36.7891 4.46101 37 4.96957 37 5.5V37.5H3V20.5C3 20.0358 3.16145 19.5883 3.45312 19.2324L3.58594 19.0859C3.96101 18.7109 4.46957 18.5 5 18.5H18V5.5C18 5.03581 18.1615 4.58833 18.4531 4.23242L18.5859 4.08594C18.961 3.71086 19.4696 3.5 20 3.5ZM19.5 20H4.5V36H9.25V25.5C9.25 25.3508 9.29445 25.2063 9.37598 25.084L9.46973 24.9697C9.61038 24.8291 9.80109 24.75 10 24.75H17.5C17.6492 24.75 17.7937 24.7944 17.916 24.876L18.0303 24.9697C18.1709 25.1104 18.25 25.3011 18.25 25.5V36H35.5V5H19.5V20ZM10.75 36H16.75V26.25H10.75V36Z" fill="#203764" stroke="#203764"/>
<path d="M22.5 10.5H25V13H22.5V10.5ZM30 10.5H32.5V13H30V10.5ZM22.5 18H25V20.5H22.5V18ZM30 18H32.5V20.5H30V18ZM22.5 25.5H25V28H22.5V25.5ZM30 25.5H32.5V28H30V25.5Z" fill="#203764"/>
</svg>
