<svg width="36" height="35" viewBox="0 0 36 35" fill="none" xmlns="http://www.w3.org/2000/svg">
<path d="M18 0.5H33C33.4642 0.5 33.9117 0.661455 34.2676 0.953125L34.4141 1.08594C34.7891 1.46101 35 1.96957 35 2.5V34.5H1V17.5C1 17.0358 1.16145 16.5883 1.45312 16.2324L1.58594 16.0859C1.96101 15.7109 2.46957 15.5 3 15.5H16V2.5C16 2.03581 16.1615 1.58833 16.4531 1.23242L16.5859 1.08594C16.961 0.710864 17.4696 0.5 18 0.5ZM17.5 17H2.5V33H7.25V22.5C7.25 22.3508 7.29445 22.2063 7.37598 22.084L7.46973 21.9697C7.61038 21.8291 7.80109 21.75 8 21.75H15.5C15.6492 21.75 15.7937 21.7944 15.916 21.876L16.0303 21.9697C16.1709 22.1104 16.25 22.3011 16.25 22.5V33H33.5V2H17.5V17ZM8.75 33H14.75V23.25H8.75V33Z" fill="#203764" stroke="#203764"/>
</svg>
