<svg width="193" height="72" viewBox="0 0 193 72" fill="none" xmlns="http://www.w3.org/2000/svg">
<g clip-path="url(#clip0_337_47)">
<path d="M22.8984 47.0646H31.7919V32.0846H62.2768V23.2794H31.7919V12.9578H63.936V4.15266H22.8984V47.0646ZM107.372 30.0103C105.477 36.0403 99.7969 40.4146 93.0848 40.4146C84.8221 40.4146 78.1251 33.791 78.1251 25.6105C78.1251 17.4319 84.8212 10.8036 93.0838 10.8036C99.7969 10.8036 105.477 15.1807 107.372 21.2079H116.48C114.398 10.2862 104.726 2.02193 93.0838 2.02193C79.9249 2.02193 69.2534 12.5834 69.2534 25.6105C69.2534 38.6329 79.9249 49.1944 93.0838 49.1944C104.726 49.1944 114.398 40.933 116.48 30.0103H107.372ZM142.2 0.546875L115.055 47.0646H125.329L142.2 18.1515L159.084 47.0646H169.359L142.2 0.546875Z" fill="#595959"/>
<path d="M132.457 66.1659C132.457 66.6382 132.38 67.0794 132.221 67.4773C132.074 67.871 131.853 68.2328 131.568 68.5431C131.288 68.8497 130.948 69.0961 130.568 69.2675C130.181 69.4396 129.752 69.5262 129.293 69.5262C128.83 69.5262 128.404 69.4359 128.013 69.2562C127.633 69.0813 127.29 68.8354 127.004 68.5318C126.717 68.2196 126.491 67.8577 126.335 67.4641C126.182 67.0414 126.104 66.5955 126.105 66.1462V66.1226C126.105 65.6523 126.186 65.2196 126.335 64.8122C126.501 64.4039 126.715 64.0493 126.993 63.7445C127.273 63.4395 127.614 63.196 127.994 63.0296C128.395 62.8475 128.832 62.7559 129.273 62.7614C129.732 62.7614 130.16 62.8536 130.543 63.0352C130.932 63.2158 131.274 63.4557 131.552 63.7624C131.841 64.0606 132.064 64.4199 132.221 64.8301C132.38 65.2431 132.457 65.6824 132.457 66.1462V66.1659ZM132.275 63.1669C131.892 62.7637 131.429 62.4437 130.916 62.2268C130.403 62.0099 129.851 61.9008 129.294 61.9063C128.683 61.9063 128.115 62.0286 127.603 62.2544C127.112 62.4735 126.67 62.7883 126.302 63.1801C125.943 63.5658 125.656 64.0164 125.455 64.5338C125.256 65.048 125.154 65.5949 125.157 66.1462V66.165C125.157 66.7341 125.252 67.2637 125.452 67.7811C125.646 68.2891 125.924 68.7425 126.285 69.1198C126.652 69.5092 127.082 69.8131 127.591 70.0436C128.091 70.2693 128.649 70.3775 129.272 70.3775C129.852 70.3862 130.428 70.2687 130.958 70.0332C131.45 69.8147 131.894 69.501 132.263 69.1104C132.628 68.7207 132.913 68.2637 133.101 67.7651C133.306 67.2499 133.41 66.7004 133.409 66.1462C133.411 66.1425 133.412 66.1385 133.412 66.1344C133.412 66.1303 133.411 66.1263 133.409 66.1226C133.409 65.561 133.307 65.022 133.113 64.5168C132.921 64.0186 132.636 63.5608 132.275 63.1669ZM115.65 66.815C115.65 67.7078 115.426 68.3851 114.989 68.8366C114.551 69.2863 113.96 69.5092 113.212 69.5092C112.436 69.5092 111.829 69.2759 111.392 68.8037C110.95 68.3258 110.74 67.64 110.74 66.7529V62.0465H109.824V66.815C109.824 67.3926 109.909 67.9015 110.069 68.3484C110.232 68.7905 110.461 69.1621 110.752 69.465C111.052 69.7614 111.412 69.9918 111.818 70.1423C112.258 70.2983 112.722 70.3747 113.188 70.3681C113.659 70.3757 114.127 70.2992 114.57 70.1423C114.977 69.9918 115.341 69.7614 115.629 69.4594C115.931 69.1546 116.157 68.7774 116.318 68.3192C116.482 67.8696 116.568 67.3456 116.568 66.7369V62.0465H115.65V66.815ZM89.1106 66.2242V62.9007H91.613C92.2693 62.9007 92.7745 63.0484 93.1428 63.3259C93.5016 63.6175 93.6811 64.0088 93.6811 64.5197V64.5441C93.6811 64.8066 93.6338 65.0455 93.5318 65.245C93.4267 65.453 93.2779 65.6362 93.0956 65.7821C92.8984 65.9286 92.676 66.0379 92.4393 66.1048C92.1805 66.1894 91.9039 66.2242 91.6055 66.2242H89.1106ZM93.2844 66.6165C93.5545 66.4914 93.783 66.3296 93.9832 66.1273C94.1834 65.9326 94.3213 65.6965 94.4337 65.4218C94.5508 65.1556 94.6036 64.8527 94.6036 64.5046V64.4783C94.6036 64.1537 94.5508 63.8574 94.4337 63.5836C94.3291 63.3189 94.1728 63.0775 93.9738 62.8734C93.7036 62.6017 93.3753 62.3943 93.0134 62.2666C92.584 62.115 92.1309 62.0405 91.6753 62.0465H88.1956V70.2439H89.1106V67.0587H91.4223L93.7708 70.2439H94.8879L92.4025 66.894C92.7075 66.8397 93.0033 66.7464 93.2844 66.6165ZM102.734 67.2421L104.584 63.0681L106.417 67.2421H102.734ZM104.164 61.991L100.477 70.2439H101.416L102.376 68.0765H106.771L107.726 70.2439H108.703L105.017 61.991H104.164ZM80.796 66.5347H85.2078V65.7003H80.796V62.879H85.7281V62.0465H79.8876V70.2439H85.7848V69.4114H80.796V66.5347ZM139.553 66.5177L136.606 62.0465H135.679V70.2439H136.576V63.6175L139.525 67.9919H139.558L142.506 63.6109V70.243H143.42V62.0465H142.503L139.553 66.5177ZM190.256 66.5441C189.83 66.1866 189.16 65.9072 188.261 65.7003C187.887 65.6282 187.52 65.5276 187.162 65.3992C186.879 65.2976 186.651 65.1829 186.494 65.0502C186.344 64.9443 186.227 64.7977 186.159 64.6278C186.093 64.4624 186.063 64.2853 186.07 64.1076V64.0888C186.07 63.7125 186.217 63.3964 186.519 63.1453C186.831 62.8894 187.258 62.7614 187.785 62.7614C188.202 62.7614 188.602 62.832 188.982 62.9712C189.365 63.1123 189.747 63.3428 190.12 63.6504L190.649 62.9411C190.267 62.6203 189.833 62.3667 189.365 62.1914C188.92 62.0211 188.401 61.9336 187.812 61.9336C187.421 61.9336 187.07 61.991 186.753 62.1029C186.422 62.2139 186.142 62.3711 185.903 62.5771C185.667 62.766 185.477 63.006 185.348 63.2788C185.214 63.5517 185.148 63.847 185.148 64.1707V64.1923C185.148 64.5234 185.211 64.8197 185.312 65.07C185.431 65.3202 185.588 65.5366 185.821 65.72C186.035 65.9082 186.319 66.0681 186.664 66.1998C187.008 66.3371 187.409 66.4538 187.87 66.5582C188.299 66.6523 188.648 66.7435 188.92 66.8451C189.199 66.9505 189.409 67.0643 189.567 67.1866C189.708 67.2962 189.819 67.4404 189.888 67.6052C189.95 67.7557 189.985 67.926 189.985 68.1094V68.1377C189.985 68.5384 189.819 68.8743 189.491 69.1358C189.159 69.3945 188.726 69.5262 188.181 69.5262C187.618 69.5262 187.119 69.4321 186.689 69.2393C186.217 69.0244 185.784 68.7311 185.41 68.3719L184.84 69.0464C185.329 69.4923 185.838 69.8244 186.378 70.0342C186.909 70.2505 187.5 70.3615 188.143 70.3615C188.549 70.3615 188.917 70.3013 189.251 70.1931C189.588 70.085 189.88 69.9288 190.12 69.7265C190.366 69.5215 190.556 69.2759 190.691 68.9975C190.819 68.7059 190.898 68.387 190.898 68.0417V68.0126C190.898 67.3964 190.681 66.9063 190.256 66.5441ZM177.952 66.5337H182.371V65.7003H177.952V62.879H182.886V62.0465H177.038V70.2439H182.944V69.4114H177.953L177.952 66.5337ZM170.463 62.0465H169.541V70.2439H175.007V69.3851H170.462L170.463 62.0465ZM162.292 67.9448C162.292 68.4067 162.115 68.7633 161.764 69.0201C161.404 69.2835 160.915 69.4114 160.302 69.4114H157.592V66.5177H160.148C160.852 66.5177 161.383 66.6466 161.745 66.8903C162.112 67.1339 162.292 67.4773 162.292 67.926V67.9448ZM157.592 62.8772H160.051C160.626 62.8772 161.066 63.0013 161.377 63.245C161.685 63.4886 161.84 63.8066 161.84 64.2083V64.2327C161.84 64.7116 161.666 65.07 161.324 65.3202C160.983 65.5714 160.538 65.689 159.983 65.689H157.592V62.8772ZM162.695 66.6758C162.532 66.5167 162.347 66.3815 162.145 66.2741C161.932 66.1583 161.706 66.0679 161.472 66.0051C161.633 65.9242 161.791 65.8414 161.942 65.7332C162.085 65.6288 162.222 65.4971 162.344 65.3484C162.473 65.1873 162.574 65.0062 162.643 64.8122C162.712 64.6034 162.751 64.3738 162.751 64.1076V64.0775C162.751 63.5742 162.581 63.1453 162.23 62.7718C161.976 62.5361 161.676 62.3558 161.348 62.2422C160.953 62.1113 160.54 62.0453 160.124 62.0465H156.684V70.2439H160.275C160.715 70.2439 161.108 70.1837 161.472 70.0887C161.833 69.9909 162.145 69.8366 162.401 69.6485C162.653 69.4659 162.857 69.2246 162.995 68.9457C163.133 68.6682 163.2 68.355 163.2 68.0013V67.9815C163.2 67.6955 163.152 67.4547 163.063 67.2346C162.975 67.028 162.851 66.8381 162.695 66.6758ZM153.231 66.1659C153.231 66.6391 153.152 67.0794 152.997 67.4773C152.846 67.8705 152.623 68.2322 152.339 68.5441C152.059 68.8488 151.72 69.0945 151.342 69.2665C150.941 69.4424 150.507 69.5313 150.069 69.5271C149.626 69.5312 149.187 69.4387 148.784 69.2562C148.404 69.0839 148.062 68.8376 147.779 68.5318C147.49 68.2225 147.264 67.8598 147.114 67.4641C146.954 67.0431 146.876 66.5961 146.881 66.1462V66.1226C146.881 65.6523 146.953 65.2196 147.114 64.8122C147.27 64.4049 147.495 64.0493 147.763 63.7445C148.044 63.4378 148.387 63.1941 148.77 63.0296C149.168 62.8485 149.602 62.7569 150.04 62.7614C150.508 62.7614 150.931 62.8536 151.321 63.0361C151.708 63.2149 152.047 63.4557 152.325 63.7624C152.617 64.0615 152.84 64.4199 152.997 64.8301C153.152 65.2431 153.231 65.6824 153.231 66.1462V66.1659ZM153.047 63.1678C152.665 62.7633 152.204 62.4423 151.691 62.2253C151.178 62.0083 150.626 61.9 150.069 61.9073C149.452 61.9073 148.892 62.0277 148.38 62.2535C147.887 62.4716 147.443 62.7868 147.075 63.1801C146.71 63.5658 146.432 64.0164 146.232 64.5338C146.03 65.0476 145.928 65.5946 145.929 66.1462V66.1659C145.929 66.7177 146.028 67.2652 146.222 67.7821C146.415 68.2901 146.704 68.7416 147.058 69.1198C147.419 69.5092 147.859 69.814 148.356 70.0445C148.888 70.2721 149.461 70.3859 150.04 70.3785C150.659 70.3785 151.22 70.2656 151.727 70.0332C152.22 69.8143 152.665 69.5011 153.037 69.1113C153.398 68.7284 153.68 68.276 153.879 67.7661C154.077 67.2487 154.178 66.6997 154.178 66.1462C154.187 66.1396 154.187 66.1283 154.178 66.1226C154.178 65.562 154.077 65.0229 153.887 64.5178C153.698 64.0172 153.413 63.5586 153.047 63.1678ZM165.679 70.2439H166.591V62.0484H165.679V70.2439ZM118.259 62.9007H120.978V70.2439H121.886V62.9007H124.605V62.0465H118.259V62.9007ZM35.8604 69.2195C35.46 69.4246 34.986 69.5271 34.4279 69.5271C34.0006 69.5297 33.5778 69.4408 33.188 69.2665C32.8142 69.0934 32.4787 68.8478 32.2012 68.5441C31.9092 68.2372 31.6835 67.8737 31.5383 67.4763C31.3742 67.052 31.291 66.6009 31.2928 66.1462V66.1226C31.2928 65.6523 31.3778 65.2196 31.5383 64.8066C31.6922 64.3983 31.9085 64.0399 32.2012 63.7351C32.483 63.4262 32.8269 63.1799 33.2105 63.0121C33.5941 62.8444 34.0089 62.759 34.4279 62.7614C34.986 62.7614 35.46 62.8743 35.8604 63.0832C36.2513 63.2901 36.6253 63.5611 36.9699 63.8884L37.596 63.2074C37.4001 63.0161 37.1909 62.8388 36.9699 62.6768C36.7537 62.5136 36.5192 62.376 36.2712 62.2666C36.005 62.1492 35.7266 62.0612 35.4411 62.0042C35.1119 61.936 34.7763 61.9035 34.4402 61.9073C33.8481 61.9073 33.3023 62.0202 32.8008 62.2422C32.3125 62.458 31.8728 62.7696 31.5081 63.1584C31.144 63.5519 30.8542 64.0076 30.6526 64.5037C30.4509 65.0277 30.35 65.5849 30.3551 66.1462V66.1659C30.3551 66.7539 30.4495 67.3032 30.6526 67.8225C30.8631 68.338 31.1521 68.7821 31.5081 69.1621C31.8735 69.5375 32.2994 69.831 32.7876 70.0539C33.299 70.2751 33.8516 70.3858 34.409 70.3785C34.7478 70.3813 35.086 70.3475 35.4175 70.2778C35.7169 70.2026 35.9983 70.1085 36.2513 69.9815C36.5167 69.8592 36.766 69.7087 36.9888 69.5328C37.224 69.3522 37.4447 69.1538 37.6489 68.9392L37.0389 68.3484C36.6918 68.6956 36.2946 68.9892 35.8604 69.2195ZM45.3941 65.689H40.7292V62.0465H39.8199V70.2439H40.7283V66.5591H45.3941V70.2439H46.3034V62.0465H45.3941V65.689ZM19.4106 62.9007H22.1293V70.2439H23.0443V62.9007H25.7563V62.0465H19.4106V62.9007ZM0.5 70.2439H1.41125V66.6701H5.79282V65.8423H1.41125V62.9007H6.31408V62.0465H0.5V70.2439ZM13.6938 67.2421L15.5399 63.0691L17.3766 67.2421H13.6938ZM15.1197 61.9919L11.4445 70.2439H12.3793L13.3397 68.0765H17.7402L18.6863 70.2439H19.6656L15.979 61.9919H15.1197ZM8.73622 70.2439H9.6503V62.0484H8.73527L8.73622 70.2439ZM50.091 66.2252V62.9007H52.5935C53.2403 62.9007 53.7512 63.0484 54.1185 63.3259C54.4764 63.6175 54.6568 64.0098 54.6568 64.5206V64.5441C54.6568 64.8075 54.6077 65.0455 54.5 65.245C54.4017 65.4558 54.2544 65.6402 54.0703 65.783C53.8708 65.93 53.6457 66.039 53.4065 66.1048C53.1581 66.1894 52.8758 66.2252 52.5708 66.2252H50.091ZM54.2564 66.6165C54.5255 66.4914 54.7587 66.3296 54.9485 66.1283C55.1535 65.9292 55.3132 65.6886 55.4169 65.4227C55.5161 65.1556 55.5718 64.8527 55.5718 64.5046V64.4783C55.5718 64.1537 55.5161 63.8574 55.4169 63.5846C55.3125 63.3175 55.153 63.0751 54.9485 62.8734C54.6992 62.61 54.3716 62.4134 53.9816 62.2666C53.5555 62.1146 53.1055 62.04 52.6529 62.0465H49.1732V70.2439H50.091V67.0587H52.398L54.738 70.2439H55.8617L53.3782 66.894C53.6992 66.8348 53.9825 66.7435 54.2564 66.6165ZM59.9439 66.1462L57.2243 62.0465H56.1195L59.4774 67.0022V70.2439H60.3934V66.99L63.7551 62.0465H62.6918L59.9439 66.1462ZM69.7694 66.545C69.3435 66.1857 68.6806 65.9072 67.7722 65.7003C67.3984 65.6288 67.0309 65.5281 66.673 65.3992C66.3907 65.2986 66.1688 65.1829 66.0111 65.0502C65.8592 64.9448 65.7409 64.7982 65.6702 64.6278C65.6084 64.4618 65.5783 64.2856 65.5814 64.1086V64.0879C65.5814 63.7116 65.7325 63.3964 66.0347 63.1453C66.3454 62.8903 66.7722 62.7614 67.3038 62.7614C67.7136 62.7614 68.1131 62.832 68.4936 62.9712C68.8808 63.1133 69.2585 63.3428 69.6325 63.6504L70.1698 62.9421C69.7841 62.6234 69.3487 62.3698 68.8808 62.1914C68.4323 62.0211 67.9195 61.9336 67.3199 61.9336C66.9421 61.9336 66.5852 61.9919 66.2604 62.1029C65.9523 62.2052 65.6672 62.3663 65.4209 62.5771C65.1754 62.7727 64.9912 63.0013 64.86 63.2788C64.7353 63.5517 64.6635 63.847 64.6635 64.1707V64.1932C64.6635 64.5225 64.7221 64.8197 64.8241 65.07C64.9355 65.3202 65.1036 65.5366 65.3264 65.72C65.5521 65.9082 65.8345 66.0681 66.182 66.1998C66.52 66.3381 66.9204 66.4538 67.3812 66.5591C67.738 66.6299 68.0892 66.7258 68.4323 66.8461C68.7108 66.9495 68.9299 67.0643 69.081 67.1866C69.2321 67.3127 69.3435 67.4547 69.4021 67.6052C69.4682 67.7557 69.5003 67.926 69.5003 68.1094V68.1377C69.5003 68.5394 69.3341 68.8743 69.0026 69.1367C68.6816 69.3954 68.2406 69.5271 67.6929 69.5271C67.1329 69.5271 66.6419 69.433 66.2047 69.2402C65.7323 69.0233 65.2992 68.7299 64.9232 68.3719L64.3548 69.0473C64.8439 69.4923 65.3529 69.8244 65.8836 70.0332C66.4218 70.2496 67.0111 70.3625 67.6542 70.3625C68.0324 70.3639 68.4087 70.3068 68.7694 70.1931C69.1112 70.085 69.3992 69.9297 69.6381 69.7265C69.878 69.5224 70.0612 69.2759 70.2028 68.9975C70.3407 68.7059 70.4096 68.387 70.4096 68.0417V68.0126C70.4096 67.3964 70.1924 66.9072 69.7694 66.545ZM73.5277 62.0465H72.6165V70.2439H78.0774V69.386H73.5277V62.0465Z" fill="#595959"/>
</g>
<defs>
<clipPath id="clip0_337_47">
<rect width="192" height="71" fill="white" transform="translate(0.5 0.5)"/>
</clipPath>
</defs>
</svg>
