<svg width="221" height="44" viewBox="0 0 221 44" fill="none" xmlns="http://www.w3.org/2000/svg">
<g clip-path="url(#clip0_337_54)">
<path fill-rule="evenodd" clip-rule="evenodd" d="M90.0898 17.0575V34.115L94.2256 34.2856C101.767 34.5968 103.199 34.4729 105.714 33.2913C109.456 31.5337 111.258 27.8351 111.217 22C111.187 17.789 110.172 14.655 108.152 12.5315C106.128 10.4032 103.335 9.4914 100.81 10.1345C99.3356 10.51 97.8556 11.3524 96.8658 12.3796C96.5216 12.7369 96.1613 13.0291 96.0653 13.0291C95.9693 13.0291 95.8906 10.0976 95.8906 6.51456V0H92.9902H90.0898V17.0575ZM0.5 17.1942V34.1748H3.61523H6.73047V26.699V19.2233H11.2422H15.7539V16.5577V13.8923L11.2959 13.8344L6.83789 13.7767L6.77945 9.77184L6.72102 5.76699H13.7082H20.6953V2.99029V0.213592H10.5977H0.5V17.1942ZM23.2734 17.1942V34.1748H26.1738H29.0742V17.1942V0.213592H26.1738H23.2734V17.1942ZM215.134 1.96184C213.013 3.39462 212.794 6.1694 214.676 7.74421C217.581 10.1738 221.761 6.59359 219.874 3.29231C219.187 2.08872 218.464 1.63676 217.072 1.54021C216.088 1.47165 215.751 1.54513 215.134 1.96184ZM215.648 2.1293C215.061 2.36575 214.089 3.52598 213.921 4.19303C213.616 5.40068 214.204 6.93 215.231 7.59876C217.825 9.28849 220.958 6.20251 219.463 3.43072C218.796 2.19423 217.006 1.58336 215.648 2.1293ZM206.32 6.62136V10.466H204.494H202.668V12.6019V14.7379H204.482H206.295L206.362 22.267C206.434 30.4531 206.425 30.3893 207.744 32.2887C209.111 34.2561 210.783 34.7359 214.538 34.2369L217.062 33.9016V31.9023V29.9029H216.106C214.467 29.9029 213.027 29.4947 212.553 28.8956C212.141 28.3753 212.121 28.0368 212.121 21.544V14.7379H214.592H217.062V12.6019V10.466H214.592H212.121V6.62136V2.7767H209.221H206.32V6.62136ZM215.344 4.90002C215.344 5.95047 215.44 6.86913 215.559 6.94175C215.69 7.02249 215.773 6.69483 215.773 6.09998C215.773 5.16381 215.798 5.12621 216.408 5.12621C216.844 5.12621 217.163 5.29666 217.428 5.67023C218.273 6.86037 218.535 7.15 218.657 7.02932C218.727 6.9599 218.499 6.51115 218.149 6.03184L217.515 5.16082L218.04 4.81821C219.244 4.03454 218.399 2.99029 216.562 2.99029H215.344V4.90002ZM215.773 4.05377C215.773 4.85068 216.172 5.04847 217.247 4.78425C217.887 4.62726 218.029 4.49483 218.029 4.05825C218.029 3.56464 217.944 3.51936 216.901 3.45977L215.773 3.39505V4.05377ZM65.8467 10.1441C64.3118 10.4855 62.6216 11.3646 60.8578 12.7389C60.2006 13.2508 59.5962 13.6699 59.515 13.6699C59.4336 13.6699 59.3672 12.8982 59.3672 11.955V10.24L56.5205 10.2996L53.6738 10.3592L53.6184 22.267L53.5628 34.1748H56.4421C58.8692 34.1748 59.3416 34.1218 59.4516 33.8369C59.5234 33.651 59.582 29.9587 59.582 25.6317V17.7645L60.6025 16.8682C62.251 15.4205 63.605 14.7421 64.8515 14.7398C65.5055 14.7387 66.1292 14.8754 66.4319 15.0862C67.4885 15.8218 67.5312 16.2279 67.5312 25.5174V34.1748H70.4316H73.332V26.1001V18.0255L74.0303 17.3802C75.022 16.4635 76.333 15.4953 77.1348 15.0875C78.1291 14.5819 79.5866 14.6341 80.3114 15.2009C81.469 16.1061 81.4961 16.3447 81.4961 25.6242V34.1748H84.4066H87.3169L87.2477 24.2961C87.1703 13.2611 87.1785 13.3258 85.6331 11.531C84.6002 10.3312 83.8209 10.0388 81.6555 10.0388C78.6758 10.0388 76.8733 10.6647 74.3207 12.5855L72.9118 13.6458L72.509 12.75C72.0314 11.6882 71.1105 10.724 70.2168 10.3503C69.1499 9.90384 67.3166 9.81734 65.8467 10.1441ZM123.792 10.0414C117.336 11.0519 113.622 15.9931 113.998 23.0733C114.196 26.7941 115.134 28.9684 117.486 31.1556C119.129 32.6837 121.366 33.8351 123.605 34.3055C125.504 34.7043 129.146 34.5975 130.73 34.0964C134.896 32.7781 137.892 29.6675 138.882 25.6311C139.305 23.9106 139.245 19.8421 138.774 18.2621C137.58 14.2596 134.713 11.5148 130.643 10.4799C128.704 9.98693 125.465 9.77953 123.792 10.0414ZM193.284 10.0493C191.695 10.328 190.104 11.0861 188.442 12.3548C187.649 12.9606 186.948 13.4563 186.885 13.4563C186.821 13.4563 186.77 12.7327 186.77 11.8482V10.24L183.923 10.2996L181.076 10.3592L181.021 22.267L180.965 34.1748H183.867H186.77V26.0796V17.9847L188.005 16.8612C190.011 15.0369 192.076 14.3284 193.503 14.975C194.581 15.463 194.607 15.6922 194.674 25.2573L194.737 34.1748H197.521H200.305V24.144C200.305 14.6403 200.282 14.0533 199.875 12.9727C199.418 11.7578 198.414 10.629 197.478 10.2785C196.593 9.94699 194.513 9.83336 193.284 10.0493ZM39.709 10.4581C37.4018 10.9462 35.2013 12.2038 34.2528 13.5763C34.0042 13.936 33.8008 14.2923 33.8008 14.3681C33.8008 14.444 34.4799 15.0448 35.3101 15.7033L36.8195 16.9005L37.7681 16.0705C39.2535 14.7705 41.5846 14.3357 43.1379 15.0685C44.0432 15.4957 44.3608 16.2003 44.4903 18.071L44.5954 19.5888L42.3449 19.7385C37.7891 20.042 35.3193 20.9028 33.5816 22.7929C32.3487 24.134 31.8672 25.4512 31.8672 27.4831C31.8672 30.772 33.8652 33.2253 37.2454 34.0868C39.8806 34.7585 42.4925 34.1961 44.3064 32.5668C44.7973 32.126 45.2275 31.8028 45.2625 31.8487C45.2975 31.8944 45.4934 32.381 45.6978 32.9297C46.2624 34.4452 46.3756 34.4904 48.6499 34.1092C49.7289 33.9283 50.7038 33.6886 50.8166 33.5765C50.9468 33.447 50.8587 32.8475 50.5749 31.9344C49.9007 29.7643 49.7029 27.3573 49.7009 21.3005C49.6994 16.4111 49.6528 15.6638 49.2844 14.6217C48.6768 12.9031 47.7581 11.8757 46.1053 11.0669C44.8377 10.4464 44.4622 10.3663 42.6263 10.3238C41.4943 10.2977 40.1816 10.3582 39.709 10.4581ZM138.934 10.5653C139.453 11.9086 146.594 34.8493 146.594 35.1718C146.594 35.9905 145.47 37.8389 144.577 38.4874C143.315 39.4043 142.833 39.5645 140.9 39.7077L139.182 39.8349L139.12 41.9175L139.059 44H140.34C142.21 44 144.777 43.6031 146.107 43.1087C146.869 42.825 147.747 42.2308 148.666 41.3762C149.84 40.2841 150.25 39.6968 151.221 37.7125C152.324 35.4602 153.145 32.9408 160.044 10.6198C160.154 10.2667 159.96 10.2441 157.304 10.2994L154.445 10.3592L152.077 17.8772C150.775 22.0122 149.654 25.4467 149.587 25.5095C149.52 25.5725 148.764 23.3907 147.907 20.6614C147.049 17.9321 145.958 14.4736 145.481 12.9757L144.615 10.2524H141.714C139.255 10.2524 138.832 10.3001 138.934 10.5653ZM166.525 10.5715C164.25 11.1442 161.991 12.5763 161.315 13.8745C161.025 14.4331 161.046 14.4632 162.551 15.6424L164.083 16.8422L164.831 16.1892C166.451 14.7752 168.842 14.3158 170.438 15.1121C171.441 15.6119 171.724 16.2612 171.727 18.0727L171.73 19.592L169.636 19.741C162.3 20.2633 159.17 22.6117 159.187 27.5803C159.195 29.6071 159.891 31.1789 161.345 32.4513C162.796 33.7209 164.341 34.2461 166.682 34.2655C168.336 34.2792 168.787 34.2015 169.807 33.726C170.462 33.4203 171.348 32.8646 171.777 32.4906C172.616 31.7584 172.624 31.7612 172.999 32.9208C173.137 33.3471 173.436 33.8625 173.662 34.0658C174.076 34.4383 174.769 34.3971 177.585 33.8322C178.318 33.6852 178.338 33.2886 177.708 31.3981C177.285 30.1291 177.233 29.3854 177.102 22.7476C176.942 14.5834 176.883 14.2406 175.359 12.5191C174.891 11.99 173.97 11.2963 173.312 10.9759C172.293 10.4805 171.791 10.384 169.935 10.3278C168.53 10.2853 167.319 10.3718 166.525 10.5715ZM125.646 13.8784C123.839 14.1689 122.303 15.5256 121.613 17.4424C121.083 18.9125 120.757 21.852 120.93 23.6019C121.241 26.7533 122.158 28.5611 123.989 29.6312C124.853 30.1362 125.239 30.2233 126.613 30.2233C127.989 30.2233 128.373 30.1364 129.243 29.6284C129.802 29.3012 130.506 28.6765 130.806 28.2401C132.625 25.5933 132.906 19.7124 131.357 16.6944C130.309 14.6514 127.981 13.5033 125.646 13.8784ZM98.1465 15.2857C97.792 15.4681 97.1395 15.9677 96.6963 16.3958L95.8906 17.1741V24.2914V31.4087L96.4664 31.6264C100.012 32.9663 103.198 30.5236 104.498 25.4696C105.887 20.0721 103.636 14.9641 99.8652 14.9564C99.2744 14.9551 98.501 15.1033 98.1465 15.2857ZM42.0723 23.4259C38.6335 23.9061 37.1044 26.2227 38.4605 28.8977C39.3573 30.6669 41.9077 30.7925 43.8512 29.1635L44.5559 28.5727L44.4957 25.9805L44.4355 23.3883L43.5762 23.3621C43.1035 23.3478 42.4268 23.3764 42.0723 23.4259ZM168.963 23.5225C166.065 24.0009 164.589 26.1578 165.58 28.468C166.074 29.6218 166.858 30.177 168.13 30.2741C169.114 30.3491 169.413 30.2684 170.441 29.6492L171.623 28.9381L171.683 26.1099L171.743 23.2816L170.931 23.3065C170.485 23.3202 169.599 23.4174 168.963 23.5225Z" fill="#464646"/>
</g>
<defs>
<clipPath id="clip0_337_54">
<rect width="220" height="44" fill="white" transform="translate(0.5)"/>
</clipPath>
</defs>
</svg>
