<svg width="144" height="62" viewBox="0 0 144 62" fill="none" xmlns="http://www.w3.org/2000/svg">
<g clip-path="url(#clip0_337_52)">
<path fill-rule="evenodd" clip-rule="evenodd" d="M25.2499 2.50293H36.951L36.9498 32.9262C36.951 38.1744 34.6834 49.1412 18.4686 49.1412C2.25908 49.1412 0.5 38.9247 0.5 33.1893V27.5744H11.8139V33.0641C11.8139 36.4296 14.0803 39.5496 18.3478 39.5496C22.6166 39.5496 25.2499 37.1799 25.2499 33.1893V2.50293ZM55.0409 15.2285C64.2094 15.2285 72.2536 18.7192 72.2536 34.8089H50.5083C50.5083 39.9189 52.6523 42.027 56.4123 42.027C60.1903 42.027 61.4522 39.0446 61.4522 39.0446H72.1325C72.1325 43.6639 65.7198 49.8915 56.0426 49.7713C44.9776 49.7713 39.5858 41.6612 39.5858 33.3097C39.5858 24.9403 44.3606 15.2285 55.0409 15.2285ZM61.5746 28.3235C61.5746 25.2034 59.8208 22.2048 55.7775 22.2048C51.8976 22.2048 50.5083 24.9403 50.5083 28.3235H61.5746ZM89.9627 15.2285C99.149 15.2285 107.176 18.7192 107.176 34.8089H85.4479C85.4479 39.9189 87.5702 42.027 91.3469 42.027C95.1251 42.027 96.3742 39.0446 96.3742 39.0446H107.055C107.055 43.6639 100.642 49.8915 90.9787 49.7713C79.9122 49.7713 74.5028 41.6612 74.5028 33.3097C74.5028 24.9403 79.2826 15.2285 89.9627 15.2285ZM96.4955 28.3235C96.4955 25.2034 94.7375 22.2048 90.7174 22.2048C86.8196 22.2048 85.4467 24.9403 85.4467 28.3235H96.4955ZM109.194 59.4956V16.4699H119.996C119.996 16.4699 119.994 17.095 119.994 18.2109C119.996 20.826 121.384 19.3443 121.506 18.9598C121.632 18.5942 124.267 15.5943 129.677 15.5943C135.086 15.5943 143.499 19.3443 143.499 32.5597C143.5 42.7761 138.477 50.2751 129.797 50.2751C125.023 50.2751 122.261 48.4088 121.632 47.6597C120.999 46.9096 120.12 46.7717 120.12 47.6597V59.4971L109.194 59.4956ZM119.875 32.9249C119.753 39.2902 121.119 42.6557 126.407 42.6557C131.678 42.6557 132.432 36.9205 132.432 32.5594C132.432 28.203 131.43 23.9458 125.898 23.9458C122.509 23.9458 119.994 26.5786 119.875 32.9249Z" fill="#464646"/>
</g>
<defs>
<clipPath id="clip0_337_52">
<rect width="143" height="62" fill="white" transform="translate(0.5)"/>
</clipPath>
</defs>
</svg>
