<svg width="20" height="19" viewBox="0 0 20 19" fill="none" xmlns="http://www.w3.org/2000/svg">
<path d="M17.1527 0.142578C17.6897 0.142578 18.2048 0.363293 18.5846 0.756169C18.9643 1.14905 19.1777 1.6819 19.1777 2.23751V16.902C19.1777 17.4576 18.9643 17.9905 18.5846 18.3834C18.2048 18.7762 17.6897 18.997 17.1527 18.997H2.97764C2.44058 18.997 1.92551 18.7762 1.54575 18.3834C1.16598 17.9905 0.952637 17.4576 0.952637 16.902V2.23751C0.952637 1.6819 1.16598 1.14905 1.54575 0.756169C1.92551 0.363293 2.44058 0.142578 2.97764 0.142578H17.1527ZM16.6464 16.3783V10.8267C16.6464 9.92108 16.2987 9.05253 15.6797 8.41214C15.0606 7.77176 14.2211 7.41199 13.3457 7.41199C12.485 7.41199 11.4827 7.95667 10.9967 8.7737V7.61101H8.17178V16.3783H10.9967V11.2143C10.9967 10.4077 11.6244 9.74784 12.404 9.74784C12.78 9.74784 13.1405 9.90234 13.4064 10.1774C13.6722 10.4524 13.8215 10.8254 13.8215 11.2143V16.3783H16.6464ZM4.88115 5.96649C5.33228 5.96649 5.76494 5.78109 6.08394 5.45107C6.40294 5.12106 6.58215 4.67346 6.58215 4.20675C6.58215 3.2326 5.82277 2.43653 4.88115 2.43653C4.42733 2.43653 3.99209 2.62303 3.6712 2.95501C3.3503 3.28699 3.17002 3.73725 3.17002 4.20675C3.17002 5.18089 3.93952 5.96649 4.88115 5.96649ZM6.28853 16.3783V7.61101H3.48389V16.3783H6.28853Z" fill="white"/>
</svg>
