<svg width="14" height="20" viewBox="0 0 14 20" fill="none" xmlns="http://www.w3.org/2000/svg">
<path d="M7.00146 0C3.13146 0 0.00146484 3.13 0.00146484 7C0.00146484 12.25 7.00146 20 7.00146 20C7.00146 20 14.0015 12.25 14.0015 7C14.0015 3.13 10.8715 0 7.00146 0ZM7.00146 9.5C6.33842 9.5 5.70254 9.23661 5.2337 8.76777C4.76486 8.29893 4.50146 7.66304 4.50146 7C4.50146 6.33696 4.76486 5.70107 5.2337 5.23223C5.70254 4.76339 6.33842 4.5 7.00146 4.5C7.66451 4.5 8.30039 4.76339 8.76923 5.23223C9.23807 5.70107 9.50146 6.33696 9.50146 7C9.50146 7.66304 9.23807 8.29893 8.76923 8.76777C8.30039 9.23661 7.66451 9.5 7.00146 9.5Z" fill="white"/>
</svg>
