<svg width="29" height="30" viewBox="0 0 29 30" fill="none" xmlns="http://www.w3.org/2000/svg">
<path d="M25.2917 0.75C26.1094 0.75 26.8937 1.08363 27.4719 1.6775C28.0501 2.27136 28.375 3.07681 28.375 3.91667V26.0833C28.375 26.9232 28.0501 27.7286 27.4719 28.3225C26.8937 28.9164 26.1094 29.25 25.2917 29.25H3.70833C2.89058 29.25 2.10632 28.9164 1.52809 28.3225C0.94985 27.7286 0.625 26.9232 0.625 26.0833V3.91667C0.625 3.07681 0.94985 2.27136 1.52809 1.6775C2.10632 1.08363 2.89058 0.75 3.70833 0.75H25.2917ZM24.5208 25.2917V16.9C24.5208 15.531 23.9913 14.2182 23.0488 13.2502C22.1063 12.2822 20.8279 11.7383 19.495 11.7383C18.1846 11.7383 16.6583 12.5617 15.9183 13.7967V12.0392H11.6171V25.2917H15.9183V17.4858C15.9183 16.2667 16.8742 15.2692 18.0613 15.2692C18.6337 15.2692 19.1827 15.5027 19.5874 15.9184C19.9922 16.3341 20.2196 16.8979 20.2196 17.4858V25.2917H24.5208ZM6.60667 9.55333C7.29358 9.55333 7.95235 9.27308 8.43807 8.77424C8.92379 8.27539 9.19667 7.59881 9.19667 6.89333C9.19667 5.42083 8.04042 4.2175 6.60667 4.2175C5.91567 4.2175 5.25297 4.49942 4.76436 5.00123C4.27575 5.50305 4.00125 6.18366 4.00125 6.89333C4.00125 8.36583 5.17292 9.55333 6.60667 9.55333ZM8.74958 25.2917V12.0392H4.47917V25.2917H8.74958Z" fill="#203764"/>
</svg>
