<svg width="155" height="103" viewBox="0 0 155 103" fill="none" xmlns="http://www.w3.org/2000/svg">
<path fill-rule="evenodd" clip-rule="evenodd" d="M76.9233 15.1748C78.7609 15.1556 80.9894 15.2516 81.9082 15.3477C82.827 15.463 84.4499 15.7321 85.5248 15.9435C86.5998 16.1549 88.4958 16.6737 89.7274 17.0773C90.959 17.4809 92.8551 18.2111 93.9308 18.7108C95.0058 19.1912 96.6278 20.0368 97.5469 20.5941C98.466 21.1322 100.05 22.1891 101.066 22.9194C102.082 23.6689 103.861 25.187 104.995 26.3016C106.129 27.4163 107.536 28.9152 108.142 29.6646C108.729 30.4142 109.745 31.7978 110.371 32.7394C111.016 33.6811 111.993 35.353 112.56 36.4292C113.107 37.5245 113.576 38.447 113.576 38.5046C113.576 38.5623 113.029 38.8505 112.345 39.1388C111.68 39.4463 110.938 39.7538 110.683 39.8114C110.293 39.9268 110.136 39.7346 109.061 37.6783C108.416 36.4484 107.302 34.6035 106.578 33.6042C105.855 32.6049 104.35 30.8561 103.216 29.7031C102.082 28.55 100.597 27.1472 99.8929 26.5899C99.1891 26.0326 97.8796 25.0909 96.9605 24.476C96.0414 23.8803 94.2434 22.8809 92.9531 22.2468C91.6628 21.6318 89.6889 20.8247 88.5544 20.4596C87.4208 20.0944 85.622 19.6332 84.5471 19.4218C83.472 19.1912 81.3999 18.9222 79.9534 18.7876C77.9399 18.6147 76.6692 18.6147 74.5775 18.7876C73.0723 18.9029 70.8242 19.2296 69.5927 19.4987C68.3611 19.7869 66.4648 20.3058 65.3897 20.6709C64.3145 21.0361 62.4575 21.8048 61.2845 22.4005C60.1116 22.977 58.2936 24.0148 57.2771 24.6874C56.2606 25.3599 54.7163 26.4938 53.8561 27.2241C52.9959 27.9351 51.5103 29.3956 50.5524 30.4333C49.5946 31.4903 48.2066 33.2583 47.4638 34.3729C46.7013 35.4876 45.6849 37.1786 45.2157 38.1203C44.727 39.0619 44.2969 39.8883 44.2578 39.9459C44.2187 40.0036 43.4758 39.7346 42.6157 39.3695C41.6578 38.9659 41.0518 38.5815 41.0518 38.4086C41.0518 38.2548 41.5992 37.121 42.2638 35.9103C42.9089 34.6996 43.8082 33.1815 44.2383 32.5473C44.6683 31.9131 45.6262 30.664 46.3494 29.7608C47.0728 28.8575 48.4802 27.3394 49.4968 26.3593C50.4937 25.3792 51.8817 24.1301 52.5855 23.592C53.2892 23.0347 54.6967 22.0546 55.7132 21.382C56.7297 20.7286 58.3522 19.8062 59.3296 19.3257C60.3071 18.8453 61.4409 18.3072 61.871 18.1343C62.301 17.9613 63.3566 17.5577 64.2168 17.2695C65.077 16.962 66.6994 16.5008 67.8333 16.2125C68.967 15.9435 70.7264 15.6168 71.743 15.463C72.7595 15.3093 75.0858 15.194 76.9233 15.1748ZM1.40749 43.5973C2.34582 43.578 2.91273 43.6741 3.04956 43.8279C3.16686 43.9624 4.16383 47.1525 5.23899 50.8999C6.31416 54.6473 7.31114 58.2025 7.70211 59.8359L8.11262 58.1064C8.3472 57.1647 9.34415 53.6479 10.3607 50.3233C11.3576 46.9987 12.2569 44.1161 12.3351 43.9239C12.472 43.6741 12.7651 43.5973 13.7817 43.5973C14.9155 43.5973 15.0719 43.6357 15.2478 44.0201C15.3456 44.2698 16.2644 47.1332 17.2809 50.4194C18.2779 53.7056 19.2748 57.0686 19.4703 57.9142C19.6462 58.7598 19.8613 59.5092 19.9199 59.5861C19.9786 59.663 20.1545 59.2017 20.2913 58.5291C20.4282 57.8757 21.4056 54.2629 24.377 43.6934L25.8236 43.6357C26.6251 43.6165 27.3288 43.6549 27.407 43.7318C27.4852 43.8279 26.195 48.4209 21.5424 64.0637L18.3755 64.1598L18.1019 63.2566C17.9651 62.7378 16.929 59.2017 15.8147 55.3583C14.7005 51.5341 13.7426 48.4016 13.6839 48.4016C13.6253 48.4016 13.4298 49.0166 13.2343 49.7853C13.0389 50.554 12.0614 54.0899 9.24646 64.0637L6.15777 64.1791L3.06912 54.1283C1.38795 48.5938 0 43.9624 0 43.8471C0 43.6741 0.410519 43.5973 1.42704 43.5973H1.40749ZM149.135 48.709C149.918 48.7668 150.836 48.9973 151.56 49.3241C152.205 49.6123 153.006 50.1696 153.397 50.6116C153.788 51.0344 154.277 51.7646 154.491 52.2451C154.765 52.8601 154.902 53.6288 155 56.6651H144.053L144.17 57.5875C144.229 58.0871 144.444 58.8558 144.659 59.3171C144.855 59.759 145.265 60.3548 145.558 60.6238C145.871 60.9121 146.457 61.2964 146.887 61.4887C147.454 61.7577 148.138 61.8537 149.37 61.8537C150.582 61.8537 151.443 61.7385 153.436 61.085L153.651 61.6232C153.768 61.9114 153.886 62.4495 153.925 63.4873L152.556 63.8332C151.755 64.0253 150.406 64.1791 149.331 64.1791C148.119 64.1983 147.063 64.083 146.301 63.8716C145.656 63.6986 144.893 63.4296 144.581 63.2759C144.287 63.1221 143.701 62.6801 143.251 62.2958C142.821 61.8922 142.254 61.2195 142 60.7968C141.746 60.3741 141.394 59.4708 141.238 58.7789C141.062 58.0871 140.925 57.011 140.925 56.3768C140.925 55.7426 141.062 54.7049 141.238 54.0707C141.414 53.4365 141.707 52.6102 141.903 52.2451C142.098 51.88 142.626 51.1881 143.095 50.7269C143.564 50.2657 144.444 49.67 145.031 49.4009C145.617 49.1318 146.497 48.8436 146.985 48.7668C147.474 48.6899 148.431 48.6514 149.135 48.709ZM146.927 51.1689C146.633 51.2265 146.086 51.5724 145.695 51.9184C145.304 52.2451 144.815 52.8601 144.62 53.2636C144.405 53.6479 144.248 54.1092 144.248 54.2629C144.248 54.5127 144.796 54.5511 148.06 54.5511H151.872C151.872 53.7248 151.677 53.1098 151.422 52.6487C151.188 52.1874 150.719 51.6493 150.406 51.4572C150.074 51.265 149.37 51.0536 148.842 50.9959C148.295 50.9575 147.767 50.9383 147.669 50.9767C147.572 51.0151 147.239 51.1113 146.927 51.1689ZM44.0623 68.0225C44.16 68.0033 44.6488 68.7528 45.1179 69.6752C45.5871 70.6169 46.4472 72.0966 47.0337 72.9998C47.6397 73.9031 48.4998 75.1137 48.9494 75.6902C49.399 76.2668 50.3764 77.3814 51.1193 78.1693C51.8622 78.9572 53.211 80.2063 54.1298 80.9558C55.0485 81.7053 56.5342 82.8199 57.4531 83.4156C58.3718 83.9922 60.0921 84.9723 61.265 85.5487C62.4379 86.1445 64.295 86.9132 65.3701 87.2783C66.4453 87.6434 68.3415 88.1624 69.5731 88.4505C70.8047 88.7197 73.0527 89.0463 74.5579 89.1616C76.6497 89.3346 77.9203 89.3346 79.9337 89.1616C81.3804 89.0271 83.4525 88.7581 84.5278 88.5274C85.6027 88.316 87.4016 87.8548 88.5352 87.4897C89.6688 87.1246 91.6435 86.3174 92.9338 85.7025C94.2241 85.0683 96.0221 84.0691 96.9412 83.4733C97.8595 82.8776 99.0911 81.9935 99.6776 81.5131C100.264 81.0519 101.574 79.8604 102.571 78.8996C103.588 77.9195 105.034 76.3052 105.816 75.3059C106.598 74.3066 107.575 72.8846 108.025 72.135C108.455 71.3856 109.139 70.1557 109.531 69.387C110.156 68.1571 110.293 68.0225 110.683 68.1378C110.918 68.1955 111.661 68.503 112.345 68.8104C113.01 69.0987 113.557 69.387 113.557 69.4446C113.557 69.5023 113.088 70.4247 112.541 71.5201C111.974 72.5963 110.997 74.2682 110.352 75.2098C109.726 76.1514 108.709 77.5352 108.123 78.2846C107.516 79.0341 106.109 80.533 104.975 81.6476C103.842 82.7622 102.063 84.2805 101.046 85.0299C100.029 85.7601 98.446 86.8171 97.5277 87.3552C96.6086 87.9125 94.9865 88.7581 93.9107 89.2385C92.8358 89.7382 90.9398 90.4684 89.7081 90.872C88.4765 91.2756 86.5805 91.7944 85.5047 92.0058C84.4298 92.2172 82.8074 92.4862 81.8886 92.6016C80.9698 92.6976 78.8195 92.7937 77.0993 92.7937C75.379 92.7937 73.0527 92.6592 71.9189 92.5054C70.7851 92.3517 68.9475 91.9866 67.8138 91.7175C66.6799 91.4485 65.0574 90.9873 64.1972 90.6798C63.3371 90.3916 62.2815 89.9879 61.8515 89.815C61.4214 89.642 60.2875 89.104 59.3101 88.6235C58.3327 88.1431 56.7101 87.2207 55.6937 86.5673C54.6771 85.8947 53.2696 84.9146 52.5659 84.3573C51.8622 83.8192 50.4742 82.5701 49.4773 81.59C48.4607 80.6099 47.0532 79.0917 46.3299 78.1885C45.6066 77.2853 44.6488 76.0362 44.2187 75.402C43.7886 74.7678 42.8894 73.2496 42.2443 72.039C41.5796 70.8283 41.0323 69.6944 41.0323 69.5407C41.0323 69.3677 41.5992 69.0218 42.4594 68.6375C43.2217 68.3108 43.9645 68.0225 44.0623 68.0225ZM70.5701 41.4833C71.0978 41.4833 71.4889 41.6178 71.8798 41.9446C72.2903 42.3097 72.4076 42.5788 72.4076 43.2129C72.4076 43.8471 72.2903 44.1162 71.8798 44.4812C71.4889 44.808 71.0978 44.9425 70.5505 44.9425C70.0227 44.9425 69.6122 44.808 69.2603 44.5005C68.8498 44.1738 68.7521 43.9048 68.7325 43.2321C68.7129 42.521 68.8107 42.2905 69.2603 41.9254C69.6122 41.6371 70.0422 41.4833 70.5701 41.4833ZM35.3632 43.6741C36.7903 43.7125 37.4549 43.8087 38.1978 44.1546C38.7451 44.3852 39.5075 44.904 39.918 45.2884C40.309 45.6727 40.8173 46.403 41.0323 46.9026C41.2473 47.4215 41.4819 48.2863 41.5406 48.8244C41.6188 49.497 41.5601 50.2657 41.345 51.092C41.1496 51.7838 40.739 52.8216 40.3872 53.3981C40.0548 53.9747 39.3315 54.9739 38.8038 55.6081C38.276 56.2423 36.7316 57.8566 32.9197 61.6616H42.0097V64.1598H29.5965L29.1077 62.0459L32.3137 58.7213C34.0925 56.9149 35.9497 54.897 36.4384 54.2629C36.9466 53.6288 37.5722 52.6294 37.8654 52.0529C38.276 51.2073 38.3933 50.7269 38.3933 49.6507C38.3933 48.6514 38.2955 48.1326 38.0022 47.6522C37.7872 47.287 37.3572 46.8258 37.0639 46.5952C36.712 46.3453 36.1256 46.1724 35.5 46.1148C34.9331 46.0763 34.1708 46.0955 33.7993 46.1532C33.4279 46.23 32.6264 46.5759 32.04 46.9603C31.4535 47.3446 30.867 47.6137 30.7693 47.556C30.6716 47.5176 30.3393 47.0371 29.4987 45.519L30.3393 44.9617C30.7889 44.6542 31.5317 44.2891 32.0009 44.1353C32.4701 44.0008 32.7838 43.9162 32.9598 43.8393C33.1357 43.7624 34.3467 43.6357 35.3632 43.6741ZM53.3478 43.5973L65.3701 43.6934L65.4679 46.2877H56.4756V52.8216H64.8814V55.3198H56.4756V64.1598H53.3478V43.5973ZM100.655 48.709C101.887 48.7668 102.551 48.9013 103.295 49.2472C103.92 49.5546 104.487 50.0159 104.858 50.5347C105.171 50.996 105.542 51.8031 105.679 52.3411C105.855 52.9946 105.934 55.0316 105.934 64.1598H103.392L103.236 63.468C103.157 63.0837 103.021 62.7378 102.943 62.6993C102.864 62.6609 102.649 62.7378 102.453 62.8915C102.277 63.0452 101.848 63.2951 101.535 63.4488C101.202 63.6025 100.284 63.8332 99.4824 63.9484C98.446 64.1022 97.7036 64.1214 96.9797 63.9869C96.4134 63.8716 95.6308 63.6218 95.2211 63.4104C94.8298 63.2182 94.302 62.8531 94.0674 62.6032C93.8328 62.3534 93.5002 61.8153 93.3242 61.4309C93.1684 61.0274 93.031 60.2587 93.031 59.7014C93.031 59.1057 93.1877 58.3754 93.403 57.9142C93.6175 57.4914 94.1068 56.8957 94.5173 56.5882C94.9279 56.2615 95.7096 55.8387 96.2567 55.6273C96.9797 55.3583 97.9181 55.2238 102.845 55.0316L102.767 53.7633C102.708 52.7063 102.61 52.3796 102.219 51.976C101.946 51.6878 101.418 51.3803 101.046 51.265C100.636 51.1305 99.8736 51.092 99.1891 51.1689C98.544 51.2458 97.4883 51.5148 96.8432 51.7838C96.198 52.0529 95.5722 52.3219 95.475 52.3604C95.3577 52.418 95.0251 51.9568 94.7318 51.3419C94.4386 50.7269 94.204 50.2273 94.2434 50.208C94.2626 50.1888 94.6539 50.0159 95.0837 49.8045C95.5135 49.5931 96.2961 49.2856 96.8432 49.1127C97.371 48.9397 98.0748 48.7668 98.4074 48.7283C98.7199 48.6706 99.7362 48.6706 100.655 48.709ZM97.1364 58.0103C96.8624 58.1832 96.5105 58.6444 96.374 58.9903C96.198 59.394 96.1394 59.9128 96.2173 60.3163C96.2961 60.7007 96.5692 61.2196 96.8432 61.4694C97.2344 61.8537 97.5863 61.9691 98.544 62.0267C99.4631 62.0844 99.9909 62.0075 100.655 61.7192C101.125 61.5078 101.808 61.1043 102.16 60.8352C102.786 60.3356 102.805 60.2779 102.805 58.7789V57.2416C99.8535 57.28 98.6805 57.3761 98.3094 57.4722C97.9181 57.5875 97.3903 57.8181 97.1364 58.0103ZM135.256 48.6899C136.057 48.7475 137.172 48.9204 137.739 49.1127C138.305 49.3048 138.774 49.5546 138.774 49.6507C138.774 49.766 138.677 50.1888 138.56 50.6116C138.443 51.0344 138.267 51.4956 138.169 51.6301C138.032 51.8031 137.798 51.7646 137.152 51.4379C136.507 51.1113 135.979 51.0151 134.865 51.0151C133.692 51.0151 133.184 51.1305 132.421 51.4956C131.893 51.7454 131.17 52.3027 130.818 52.7255C130.466 53.1483 130.076 53.8978 129.939 54.359C129.802 54.8394 129.704 55.8003 129.704 56.4729C129.724 57.1647 129.821 58.068 129.939 58.4907C130.056 58.9135 130.349 59.5669 130.604 59.932C130.838 60.2972 131.484 60.8545 132.011 61.1812C132.812 61.6616 133.223 61.7769 134.455 61.8346C135.471 61.8922 136.233 61.8153 136.918 61.6039C137.446 61.4118 137.973 61.2773 138.091 61.2773C138.188 61.2773 138.443 61.7577 138.97 63.3911L138.521 63.5641C138.286 63.6602 137.68 63.8332 137.211 63.9677C136.723 64.1022 135.569 64.1982 134.67 64.1982C133.731 64.1982 132.538 64.083 131.933 63.91C131.327 63.737 130.428 63.3335 129.919 63.026C129.411 62.6993 128.766 62.1996 128.492 61.9114C128.219 61.6232 127.71 60.816 127.378 60.1242C127.006 59.3555 126.733 58.4139 126.635 57.6259C126.576 56.9533 126.576 55.858 126.635 55.2238C126.713 54.5896 127.046 53.5134 127.378 52.8216C127.691 52.149 128.296 51.2458 128.727 50.823C129.138 50.4194 130.017 49.8429 130.662 49.5354C131.308 49.228 132.265 48.9013 132.812 48.8052C133.34 48.709 134.435 48.6514 135.256 48.6899ZM68.9866 48.7859H72.1144V64.1598H68.9866V48.7859ZM76.6105 48.7859H79.1519L79.3474 50.8999L80.4616 50.1504C81.1067 49.7084 82.0842 49.2472 82.7683 49.0742C83.4134 48.9204 84.2932 48.7859 84.723 48.7859C85.1537 48.7859 85.9354 48.9204 86.4825 49.0742C87.0103 49.2472 87.7535 49.6123 88.1246 49.9005C88.4958 50.1888 89.0043 50.8614 89.2582 51.3803C89.6889 52.3219 89.7081 52.4949 89.7081 64.1598H86.7757L86.7171 58.5099C86.6777 53.1291 86.6584 52.8216 86.2671 52.3219C86.0526 52.0145 85.5633 51.6109 85.1922 51.4187C84.6845 51.1497 84.2538 51.092 83.4525 51.1881C82.8465 51.2458 82.0255 51.4572 81.5954 51.6878C81.1654 51.9184 80.5594 52.3219 79.7188 53.1098L79.7383 64.1598H76.6105V48.7859ZM110.038 48.7859H112.579L112.677 49.7468C112.717 50.2849 112.814 50.7077 112.873 50.7077C112.912 50.7077 113.44 50.4194 114.046 50.0351C114.632 49.67 115.629 49.2472 116.235 49.0742C116.861 48.9204 117.721 48.7859 118.151 48.7859C118.581 48.7859 119.402 48.9204 120.009 49.0934C120.751 49.3241 121.318 49.6507 121.884 50.208C122.393 50.6885 122.804 51.3419 122.96 51.8607C123.155 52.4949 123.214 54.2245 123.233 64.0637L120.204 64.1598L120.145 58.5099C120.106 53.1291 120.086 52.8216 119.695 52.3219C119.481 52.0145 118.991 51.6109 118.62 51.4187C118.112 51.1689 117.701 51.1113 116.919 51.1881C116.352 51.2458 115.571 51.4572 115.16 51.6493C114.77 51.8415 114.144 52.2451 113.166 53.0137V64.1598H110.038V48.7859Z" fill="#203764"/>
</svg>
