<svg width="24" height="24" viewBox="0 0 24 24" fill="none" xmlns="http://www.w3.org/2000/svg">
<mask id="mask0_135_76" style="mask-type:luminance" maskUnits="userSpaceOnUse" x="0" y="0" width="24" height="24">
<path d="M0.125 0.125H23.875V23.875H0.125V0.125Z" fill="white"/>
</mask>
<g mask="url(#mask0_135_76)">
<path d="M14.2375 0.300145L13.525 0.200145C11.3837 -0.109033 9.19856 0.196839 7.22442 1.0821C5.25028 1.96737 3.56845 3.39555 2.375 5.20015C1.10519 6.92512 0.348232 8.97357 0.191224 11.1098C0.0342165 13.2459 0.483545 15.383 1.4875 17.2751C1.59025 17.4648 1.65421 17.673 1.67568 17.8876C1.69714 18.1022 1.67566 18.3189 1.6125 18.5251C1.1 20.2876 0.625 22.0626 0.125 23.9251L0.75 23.7376C2.4375 23.2876 4.125 22.8376 5.8125 22.4251C6.16868 22.3511 6.53889 22.3859 6.875 22.5251C8.389 23.264 10.0435 23.6706 11.7276 23.7174C13.4116 23.7642 15.0862 23.4503 16.6389 22.7967C18.1916 22.1431 19.5866 21.1649 20.7301 19.9278C21.8737 18.6907 22.7394 17.2233 23.2692 15.6241C23.799 14.0249 23.9805 12.3308 23.8017 10.6557C23.6229 8.98049 23.0878 7.36295 22.2324 5.91159C21.377 4.46023 20.2211 3.20864 18.8421 2.2408C17.4632 1.27296 15.8932 0.611276 14.2375 0.300145ZM17.3875 16.7001C16.9332 17.1069 16.3792 17.386 15.782 17.5089C15.1847 17.6319 14.5655 17.5943 13.9875 17.4001C11.3687 16.6616 9.09656 15.0184 7.575 12.7626C6.99397 11.9646 6.52698 11.0896 6.1875 10.1626C6.00357 9.62486 5.9704 9.04698 6.09159 8.49169C6.21279 7.93639 6.48372 7.42488 6.875 7.01265C7.06548 6.76954 7.32476 6.58943 7.61907 6.49579C7.91337 6.40215 8.22906 6.39931 8.525 6.48765C8.775 6.55015 8.95 6.91264 9.175 7.18764C9.35833 7.70431 9.57083 8.20848 9.8125 8.70014C9.99553 8.95078 10.072 9.26365 10.0251 9.57044C9.97829 9.87724 9.81198 10.153 9.5625 10.3376C9 10.8376 9.0875 11.2501 9.4875 11.8126C10.3713 13.087 11.5917 14.091 13.0125 14.7126C13.4125 14.8876 13.7125 14.9251 13.975 14.5126C14.0875 14.3501 14.2375 14.2126 14.3625 14.0626C15.0875 13.1501 14.8625 13.1626 16.0125 13.6626C16.3792 13.8168 16.7333 13.996 17.075 14.2001C17.4125 14.4001 17.925 14.6126 18 14.9126C18.0722 15.2381 18.0532 15.5772 17.9451 15.8925C17.837 16.2079 17.6441 16.4873 17.3875 16.7001Z" fill="white"/>
</g>
</svg>
