<svg width="163" height="114" viewBox="0 0 163 114" fill="none" xmlns="http://www.w3.org/2000/svg">
<path fill-rule="evenodd" clip-rule="evenodd" d="M96.7376 10.1415C97.4774 10.9664 98.0279 10.9866 119.469 10.9866C139.333 10.9866 141.417 10.9224 141.187 10.3181C141.047 9.95052 140.933 9.57021 140.933 9.47302C140.933 9.37583 130.818 9.29639 118.456 9.29639C96.0058 9.29639 95.9802 9.29723 96.7376 10.1415ZM63.0152 13.3302C56.8102 14.1935 46.332 18.046 43.9626 20.335C43.7058 20.5831 47.9515 20.6841 55.2732 20.6046C66.2781 20.4846 67.1871 20.4153 70.1367 19.4688C74.3241 18.125 83.0903 17.989 87.3121 19.2021C92.7714 20.7711 98.8305 24.1444 102.479 27.6462C103.103 28.2446 103.81 28.7343 104.05 28.7343C105.114 28.7343 104.302 27.3897 102.079 25.4717C94.0193 18.5172 86.0889 14.8155 76.1347 13.361C70.7227 12.5704 68.5126 12.5653 63.0152 13.3302ZM103.436 16.8983C104.179 17.7261 104.699 17.7477 123.853 17.7477C142.346 17.7477 143.5 17.7041 143.367 17.0082C143.235 16.3177 141.877 16.2615 122.95 16.1588L102.674 16.0494L103.436 16.8983ZM37.6479 24.8256L34.7386 27.2554L44.9533 27.3686L55.1681 27.4819L57.3112 25.8292C58.4901 24.9203 60.1142 23.7764 60.9206 23.2879L62.3868 22.3988L51.472 22.3976L40.5568 22.3959L37.6479 24.8256ZM107.839 22.635C107.839 22.7665 108.034 23.2418 108.272 23.6915C108.691 24.48 109.339 24.5087 126.705 24.5087H144.703V23.4523V22.3959H126.271C116.133 22.3959 107.839 22.5036 107.839 22.635ZM111.609 30.002C112.046 30.8256 112.486 30.8472 128.799 30.8472C145.262 30.8472 145.541 30.8332 145.541 30.002C145.541 29.1704 145.262 29.1569 128.351 29.1569C111.291 29.1569 111.164 29.1632 111.609 30.002ZM31.3567 30.9528C30.673 31.7079 29.6609 32.8488 29.1067 33.4882L28.0992 34.6502L38.7501 34.6452L49.4005 34.6397L50.3259 33.2718C50.8349 32.5192 51.6517 31.3809 52.141 30.7415L53.0312 29.5795H42.8152H32.5988L31.3567 30.9528ZM113.868 35.7413C114.008 36.1089 114.122 36.4892 114.122 36.5864C114.122 36.6836 121.192 36.7631 129.832 36.7631C145.262 36.7631 145.541 36.7478 145.541 35.9179C145.541 35.0876 145.262 35.0728 129.577 35.0728C115.193 35.0728 113.639 35.1387 113.868 35.7413ZM25.1585 39.0872L23.629 41.4113L34.8391 41.4096L46.0492 41.4083L46.887 39.4168C47.3478 38.3215 47.7877 37.276 47.8644 37.0939C47.9414 36.9122 43.2081 36.7631 37.3463 36.7631H26.6883L25.1585 39.0872ZM93.179 39.5579C88.0477 41.4307 84.6784 45.7506 84.3177 50.919C84.1849 52.8192 84.2616 53.0449 85.078 53.1623C85.5774 53.2342 86.473 53.748 87.0679 54.3041C88.5051 55.6475 88.5114 57.565 87.0834 59.0056C86.2388 59.8575 86.1186 60.2056 86.5061 60.6768C87.1458 61.4539 87.9978 61.4353 88.3016 60.6379C88.6338 59.7645 89.5524 59.8444 90.4301 60.8226C91.1321 61.6052 91.1255 61.6829 90.2826 62.5952L89.4012 63.5498L90.735 64.9384C92.8719 67.1623 97.1226 68.0336 101.549 67.1551C107.755 65.9238 112.028 60.4778 112.028 53.8V51.5528H105.325H98.6227V54.2995V57.0461H101.346C104.28 57.0461 104.44 57.2088 103.433 59.1729C102.498 60.9971 100.612 61.8253 97.9085 61.5993C93.7307 61.2494 91.4275 58.28 91.4275 53.2431C91.4275 48.1043 94.1161 44.7918 98.2868 44.7918C100.614 44.7918 102.357 45.5549 103.563 47.1011L104.389 48.16L107.58 46.8163C109.335 46.0776 110.771 45.3483 110.771 45.1957C110.771 44.2572 108.055 41.4307 106.131 40.3663C104.08 39.2321 103.431 39.0981 99.4606 38.9904C96.2073 38.9021 94.5718 39.0496 93.179 39.5579ZM53.7991 39.8748C53.7991 39.9589 53.6185 40.9891 53.3974 42.1638C53.1766 43.3386 52.8071 45.789 52.5763 47.6094C52.3455 49.4294 51.7912 53.391 51.3447 56.4123C50.8981 59.4336 50.4046 63.0068 50.2484 64.3523L49.9644 66.7989L53.6621 66.6764L57.3598 66.5538L57.8621 62.962C58.1386 60.9865 58.6262 57.4687 58.9458 55.1446L59.5269 50.919L60.4665 53.0318C60.9834 54.1938 62.2724 57.5215 63.3314 60.4267C64.3905 63.3318 65.4428 65.9559 65.6707 66.258C65.9224 66.5923 66.7468 66.7575 67.7769 66.6806L69.4693 66.5538L71.6138 60.8492C72.793 57.7117 74.0996 54.2158 74.5172 53.0804C75.4786 50.4647 75.7614 50.9612 76.3797 56.3519C76.6428 58.643 77.0651 61.9229 77.3185 63.6411C77.7471 66.5488 77.8501 66.7651 78.8056 66.7651H79.8324L78.9644 65.6517C77.5883 63.887 77.82 62.0265 79.6137 60.4376C80.736 59.4438 81.0087 58.9701 80.661 58.6193C80.4021 58.3582 80.1906 57.4362 80.1906 56.5699C80.1906 55.0677 81.258 53.6589 82.7857 53.145C83.2411 52.9921 83.0689 51.186 81.7963 42.7846L81.3325 39.721H77.0575H72.7825L71.6133 42.7846C70.9703 44.4694 69.8694 47.3694 69.1669 49.2287C68.464 51.088 67.8188 52.6988 67.7334 52.8082C67.4548 53.1645 66.9676 52.0502 64.687 45.838L62.4413 39.721H58.1202C55.7437 39.721 53.7991 39.7903 53.7991 39.8748ZM115.379 40.954C115.379 42.7009 115.185 42.679 130.505 42.679C139.102 42.679 145.122 42.5192 145.122 42.291C145.122 42.0776 145.236 41.6023 145.376 41.2346C145.605 40.6325 144.125 40.5661 130.505 40.5661C121.598 40.5661 115.379 40.7259 115.379 40.954ZM22.1021 44.4749C21.8922 44.7656 21.4008 45.7163 21.01 46.5877L20.2995 48.1723H32.2071C38.7564 48.1723 44.1985 48.0295 44.3007 47.8554C44.4029 47.6813 44.619 46.7305 44.7812 45.7425L45.0757 43.9466H33.7793C25.2251 43.9466 22.3907 44.0747 22.1021 44.4749ZM116.716 48.0667L116.845 49.6513L130.346 49.7628L143.846 49.8744L144.1 48.7064C144.24 48.0641 144.427 47.301 144.515 47.0102C144.642 46.5949 141.674 46.482 130.631 46.482H116.585L116.716 48.0667ZM18.6326 52.7149C18.3926 53.5866 18.1953 54.4423 18.194 54.6164C18.1928 54.7905 23.9223 54.9333 30.9261 54.9333H43.661L43.811 53.0318L43.9605 51.1302H31.5146H19.0687L18.6326 52.7149ZM117.055 54.722V56.6236H129.423H141.792L142.144 55.6728C142.338 55.1497 142.629 54.2944 142.79 53.7713L143.084 52.8205H130.069H117.055V54.722ZM83.7069 55.9547C83.3601 56.8661 83.8422 58.0016 84.4848 57.7856C84.7726 57.6889 85.0081 57.1657 85.0081 56.6236C85.0081 55.4653 84.0752 54.9857 83.7069 55.9547ZM16.7798 59.2646C16.2243 61.3559 15.6454 61.2718 30.5943 61.2718C43.2597 61.2718 44.6471 61.2046 44.4184 60.6033C44.2785 60.2357 44.1641 59.5701 44.1641 59.1243C44.1641 58.3421 43.692 58.3138 30.5985 58.3138H17.0324L16.7798 59.2646ZM116.449 61.0905C116.294 61.9204 116.065 62.8712 115.938 63.2033C115.742 63.7176 117.41 63.8072 127.19 63.8072H138.671L139.593 61.8942C140.099 60.8425 140.514 59.8917 140.514 59.7814C140.514 59.6715 135.162 59.5815 128.621 59.5815H116.729L116.449 61.0905ZM82.0769 62.1131C81.7234 63.2367 82.131 63.8072 83.2872 63.8072C84.724 63.8072 84.905 63.3419 83.8917 62.2538C82.7728 61.0525 82.4192 61.025 82.0769 62.1131ZM15.6781 65.9145C15.6781 66.7512 15.9256 66.7651 30.58 66.7651C44.547 66.7651 45.4736 66.7186 45.3412 66.0256C45.2105 65.3406 44.1138 65.2781 30.4393 65.175C15.8896 65.0656 15.6781 65.0761 15.6781 65.9145ZM86.0554 65.92C85.5497 66.2496 85.6159 66.3307 86.3942 66.3362C86.9338 66.3396 87.2472 66.1558 87.1026 65.92C86.7914 65.4121 86.8349 65.4121 86.0554 65.92ZM114.097 68.3041C113.639 69.3825 113.316 70.3075 113.379 70.359C113.442 70.4106 118.207 70.561 123.967 70.6928L134.44 70.9333L135.801 68.8538C136.55 67.7104 137.163 66.6776 137.163 66.5589C137.163 66.4397 132.16 66.3425 126.046 66.3425H114.931L114.097 68.3041ZM15.3379 71.7252C15.4699 72.4182 16.5758 72.4773 31.3198 72.5804C46.2549 72.6848 47.1518 72.6489 47.0177 71.9466C46.8858 71.2536 45.7799 71.1944 31.0358 71.0913C16.1007 70.987 15.2038 71.0229 15.3379 71.7252ZM111.039 73.9369C110.611 74.6827 109.696 75.9411 109.006 76.7334L107.752 78.1743H118.188H128.625L130.635 75.8253C131.741 74.5335 132.534 73.3639 132.397 73.2265C132.261 73.0888 127.575 72.8872 121.984 72.7786L111.818 72.5809L111.039 73.9369ZM15.6781 77.7518C15.6781 78.583 15.9575 78.5969 32.6888 78.5969C48.0282 78.5969 49.6745 78.5314 49.4453 77.9284C49.3054 77.5608 49.1911 77.1805 49.1911 77.0833C49.1911 76.9861 41.6506 76.9067 32.4346 76.9067C15.9575 76.9067 15.6781 76.9206 15.6781 77.7518ZM56.3126 79.3808C56.3126 79.9069 60.3232 83.6334 63.1408 85.7247C71.2104 91.7154 80.4457 94.6357 91.3596 94.6476C100.29 94.6577 106.293 93.2104 113.867 89.221L117.591 87.2595L106.399 87.1471C96.3799 87.0461 94.9363 87.1188 92.621 87.8392C84.3303 90.4202 75.3521 89.9018 67.774 86.4055C65.0461 85.1467 59.8733 81.6504 58.4021 80.0704C57.442 79.0398 56.3126 78.6671 56.3126 79.3808ZM104.069 81.6068C103.262 82.3138 101.66 83.4454 100.508 84.1211L98.4133 85.3499L109.367 85.3541L120.321 85.3579L123.296 83.0097C124.932 81.718 126.271 80.577 126.271 80.4744C126.271 80.3713 121.606 80.2948 115.903 80.3045L105.535 80.3214L104.069 81.6068ZM16.097 84.0902C16.097 84.9227 16.3764 84.9354 34.5291 84.9354C44.6668 84.9354 52.9613 84.7832 52.9613 84.5973C52.9613 83.3305 51.7678 83.2451 34.0264 83.2451C16.3764 83.2451 16.097 83.2582 16.097 84.0902ZM17.5183 90.6746C17.6583 91.0423 17.7726 91.4226 17.7726 91.5198C17.7726 91.617 26.8228 91.6964 37.8838 91.6964C57.8906 91.6964 57.9924 91.6922 57.4721 90.8513C56.9606 90.0256 56.4952 90.0061 37.1063 90.0061C19.1848 90.0061 17.2888 90.0708 17.5183 90.6746ZM19.8672 97.6123C19.8672 98.4469 20.1466 98.4574 42.545 98.4574H65.2228L64.1575 97.6123C63.1237 96.7921 62.458 96.7672 41.4797 96.7672C20.1466 96.7672 19.8672 96.7782 19.8672 97.6123Z" fill="#464646"/>
</svg>
