<svg width="40" height="41" viewBox="0 0 40 41" fill="none" xmlns="http://www.w3.org/2000/svg">
<path d="M25 5.5C25 4.17392 24.4732 2.90215 23.5355 1.96447C22.5979 1.02678 21.3261 0.5 20 0.5C18.6739 0.5 17.4021 1.02678 16.4645 1.96447C15.5268 2.90215 15 4.17392 15 5.5C15 6.82608 15.5268 8.09785 16.4645 9.03553C17.4021 9.97322 18.6739 10.5 20 10.5C21.3261 10.5 22.5979 9.97322 23.5355 9.03553C24.4732 8.09785 25 6.82608 25 5.5ZM17.5 13C14.7422 13 12.5 15.2422 12.5 18V21.75C12.5 23.1328 13.6172 24.25 15 24.25H15.1406L16.0078 32.0234C16.1484 33.2891 17.2188 34.25 18.4922 34.25H21.5156C22.7891 34.25 23.8594 33.2891 24 32.0234L24.8594 24.25H25C26.3828 24.25 27.5 23.1328 27.5 21.75V18C27.5 15.2422 25.2578 13 22.5 13H17.5ZM10.3359 31.2969C11.3516 31.1094 12.0312 30.1328 11.8438 29.1172C11.6562 28.1016 10.6797 27.4219 9.66406 27.6094C7.13281 28.0703 4.90625 28.7188 3.25781 29.5469C2.4375 29.9609 1.67188 30.4609 1.08594 31.0781C0.5 31.7109 0 32.5703 0 33.625C0 35.2969 1.21094 36.4453 2.27344 37.1406C3.42188 37.8906 4.95312 38.4922 6.67969 38.9688C10.1719 39.9297 14.875 40.5 20 40.5C25.125 40.5 29.8281 39.9297 33.3125 38.9688C35.0391 38.4922 36.5781 37.8906 37.7188 37.1406C38.7891 36.4453 39.9922 35.2969 39.9922 33.625C39.9922 32.5703 39.4922 31.7109 38.8984 31.0781C38.3125 30.4609 37.5469 29.9609 36.7266 29.5469C35.0859 28.7188 32.8594 28.0703 30.3203 27.6094C29.3047 27.4219 28.3281 28.1016 28.1406 29.1172C27.9531 30.1328 28.6328 31.1094 29.6484 31.2969C32.0078 31.7266 33.8438 32.2969 35.0391 32.8984C35.2891 33.0234 35.4922 33.1406 35.6562 33.25C35.9375 33.4375 35.9375 33.8125 35.6562 34C34.9688 34.4453 33.8516 34.9219 32.2969 35.3516C29.2422 36.2031 24.8828 36.75 20 36.75C15.1172 36.75 10.7578 36.2031 7.67969 35.3516C6.125 34.9219 5.00781 34.4453 4.32031 34C4.03906 33.8125 4.03906 33.4375 4.32031 33.25C4.48438 33.1406 4.69531 33.0234 4.9375 32.8984C6.13281 32.2969 7.96875 31.7344 10.3281 31.2969H10.3359Z" fill="#08254F"/>
</svg>
