<svg width="23" height="33" viewBox="0 0 23 33" fill="none" xmlns="http://www.w3.org/2000/svg">
<path d="M11.2024 0.5C5.01044 0.5 0.00244141 5.508 0.00244141 11.7C0.00244141 20.1 11.2024 32.5 11.2024 32.5C11.2024 32.5 22.4024 20.1 22.4024 11.7C22.4024 5.508 17.3944 0.5 11.2024 0.5ZM11.2024 15.7C10.1416 15.7 9.12416 15.2786 8.37401 14.5284C7.62387 13.7783 7.20244 12.7609 7.20244 11.7C7.20244 10.6391 7.62387 9.62172 8.37401 8.87157C9.12416 8.12143 10.1416 7.7 11.2024 7.7C12.2633 7.7 13.2807 8.12143 14.0309 8.87157C14.781 9.62172 15.2024 10.6391 15.2024 11.7C15.2024 12.7609 14.781 13.7783 14.0309 14.5284C13.2807 15.2786 12.2633 15.7 11.2024 15.7Z" fill="#203764"/>
</svg>
