<svg width="40" height="41" viewBox="0 0 40 41" fill="none" xmlns="http://www.w3.org/2000/svg">
<path d="M19.2024 4.5C13.0104 4.5 8.00244 9.508 8.00244 15.7C8.00244 24.1 19.2024 36.5 19.2024 36.5C19.2024 36.5 30.4024 24.1 30.4024 15.7C30.4024 9.508 25.3944 4.5 19.2024 4.5ZM19.2024 19.7C18.1416 19.7 17.1242 19.2786 16.374 18.5284C15.6239 17.7783 15.2024 16.7609 15.2024 15.7C15.2024 14.6391 15.6239 13.6217 16.374 12.8716C17.1242 12.1214 18.1416 11.7 19.2024 11.7C20.2633 11.7 21.2807 12.1214 22.0309 12.8716C22.781 13.6217 23.2024 14.6391 23.2024 15.7C23.2024 16.7609 22.781 17.7783 22.0309 18.5284C21.2807 19.2786 20.2633 19.7 19.2024 19.7Z" fill="#203764"/>
</svg>
