<svg width="312" height="66" viewBox="0 0 312 66" fill="none" xmlns="http://www.w3.org/2000/svg">
<g clip-path="url(#clip0_337_45)">
<path d="M213.315 23.8846C213.382 23.88 213.448 23.862 213.508 23.8319C213.568 23.8017 213.622 23.7599 213.666 23.7088C213.71 23.6577 213.744 23.5984 213.765 23.5342C213.786 23.4701 213.795 23.4024 213.79 23.335C213.78 23.1989 213.717 23.0723 213.614 22.983C213.511 22.8936 213.377 22.8489 213.242 22.8586C213.106 22.8683 212.98 22.9317 212.891 23.0348C212.802 23.1379 212.757 23.2722 212.767 23.4083C212.778 23.5428 212.842 23.6673 212.945 23.7548C213.048 23.8422 213.18 23.8856 213.315 23.8754M180.78 7.24905C180.78 7.54437 180.867 7.83306 181.031 8.07861C181.194 8.32416 181.427 8.51555 181.699 8.62856C181.971 8.74158 182.27 8.77114 182.559 8.71353C182.848 8.65592 183.113 8.51371 183.322 8.30488C183.53 8.09606 183.672 7.83 183.729 7.54036C183.786 7.25071 183.757 6.95048 183.644 6.67764C183.532 6.4048 183.341 6.1716 183.096 6.00753C182.851 5.84346 182.563 5.75589 182.269 5.75589C181.874 5.75589 181.495 5.9132 181.216 6.19322C180.937 6.47325 180.78 6.85304 180.78 7.24905ZM190.233 10.4552C190.233 10.7524 190.321 11.0428 190.486 11.2899C190.65 11.5369 190.884 11.7295 191.158 11.8432C191.432 11.9569 191.733 11.9867 192.024 11.9287C192.314 11.8707 192.581 11.7277 192.791 11.5176C193 11.3074 193.143 11.0398 193.201 10.7483C193.258 10.4569 193.229 10.1548 193.115 9.88033C193.002 9.60581 192.81 9.37118 192.564 9.2061C192.317 9.04103 192.028 8.95291 191.731 8.95291C191.337 8.95291 190.958 9.11023 190.679 9.39025C190.399 9.67028 190.243 10.0501 190.243 10.4461M154.621 49.5524C154.619 49.8496 154.705 50.1405 154.868 50.3886C155.031 50.6367 155.264 50.8306 155.537 50.946C155.81 51.0614 156.111 51.093 156.402 51.0368C156.693 50.9806 156.961 50.8391 157.171 50.6303C157.382 50.4215 157.526 50.1547 157.586 49.8636C157.645 49.5726 157.618 49.2703 157.506 48.9951C157.394 48.7199 157.204 48.4841 156.958 48.3176C156.713 48.151 156.424 48.0611 156.128 48.0593C155.932 48.0581 155.738 48.0955 155.557 48.1694C155.376 48.2433 155.211 48.3523 155.072 48.4901C154.933 48.6279 154.823 48.7919 154.747 48.9726C154.671 49.1533 154.631 49.3472 154.63 49.5433M161.982 55.7541C161.982 56.0513 162.07 56.3417 162.235 56.5888C162.4 56.8358 162.633 57.0284 162.907 57.1421C163.181 57.2558 163.482 57.2856 163.773 57.2276C164.063 57.1696 164.33 57.0265 164.54 56.8164C164.749 56.6063 164.892 56.3386 164.95 56.0472C165.007 55.7558 164.978 55.4537 164.864 55.1792C164.751 54.9047 164.559 54.6701 164.313 54.505C164.066 54.3399 163.777 54.2518 163.48 54.2518C163.085 54.2566 162.708 54.4167 162.43 54.6977C162.151 54.9786 161.994 55.358 161.992 55.7541M171.363 58.6489C171.363 58.946 171.451 59.2364 171.615 59.4835C171.78 59.7306 172.014 59.9231 172.288 60.0368C172.561 60.1505 172.863 60.1803 173.153 60.1223C173.444 60.0644 173.711 59.9213 173.92 59.7112C174.13 59.5011 174.272 59.2334 174.33 58.9419C174.388 58.6505 174.358 58.3485 174.245 58.0739C174.131 57.7994 173.939 57.5648 173.693 57.3997C173.447 57.2346 173.157 57.1465 172.861 57.1465C172.664 57.1453 172.469 57.1833 172.286 57.2584C172.104 57.3335 171.938 57.4441 171.799 57.5838C171.66 57.7236 171.549 57.8897 171.475 58.0725C171.4 58.2553 171.362 58.4512 171.363 58.6489ZM180.99 58.5298C180.997 58.823 181.09 59.1077 181.258 59.3482C181.425 59.5886 181.66 59.7743 181.932 59.882C182.204 59.9897 182.502 60.0146 182.788 59.9537C183.074 59.8927 183.336 59.7486 183.541 59.5393C183.746 59.33 183.884 59.0648 183.94 58.7768C183.996 58.4888 183.965 58.1907 183.853 57.9199C183.741 57.649 183.551 57.4173 183.309 57.2537C183.066 57.0901 182.78 57.0018 182.488 57C182.289 56.9987 182.091 57.0376 181.907 57.1143C181.723 57.1911 181.556 57.3042 181.416 57.4469C181.276 57.5896 181.167 57.7589 181.094 57.945C181.02 58.131 180.985 58.3298 180.99 58.5298ZM190.233 55.5892C190.237 55.8848 190.328 56.1727 190.493 56.4169C190.659 56.6611 190.894 56.8508 191.167 56.9623C191.44 57.0737 191.739 57.1019 192.028 57.0434C192.317 56.9848 192.582 56.8421 192.79 56.6331C192.999 56.4241 193.141 56.1581 193.2 55.8684C193.258 55.5787 193.23 55.2782 193.119 55.0044C193.008 54.7307 192.818 54.4959 192.575 54.3294C192.331 54.1629 192.044 54.0722 191.75 54.0686C191.553 54.0674 191.357 54.1054 191.175 54.1805C190.993 54.2555 190.827 54.3661 190.688 54.5059C190.548 54.6456 190.438 54.8117 190.363 54.9946C190.288 55.1774 190.251 55.3733 190.252 55.5709M197.614 49.6349C197.614 49.932 197.701 50.2225 197.866 50.4695C198.031 50.7166 198.265 50.9091 198.538 51.0229C198.812 51.1366 199.113 51.1663 199.404 51.1083C199.694 51.0504 199.961 50.9073 200.171 50.6972C200.38 50.4871 200.523 50.2194 200.581 49.928C200.639 49.6366 200.609 49.3345 200.495 49.06C200.382 48.7854 200.19 48.5508 199.944 48.3857C199.697 48.2207 199.408 48.1326 199.112 48.1326C198.914 48.1313 198.719 48.1694 198.537 48.2444C198.355 48.3195 198.189 48.4301 198.05 48.5699C197.91 48.7096 197.8 48.8757 197.725 49.0585C197.65 49.2413 197.612 49.4373 197.614 49.6349ZM197.513 16.3821C197.515 16.677 197.604 16.9648 197.768 17.2092C197.933 17.4535 198.166 17.6435 198.438 17.7551C198.711 17.8667 199.01 17.8949 199.298 17.8363C199.586 17.7777 199.851 17.6347 200.058 17.4255C200.265 17.2164 200.406 16.9503 200.463 16.6609C200.519 16.3715 200.489 16.0718 200.377 15.7994C200.264 15.5271 200.073 15.2945 199.828 15.1308C199.583 14.9671 199.296 14.8798 199.002 14.8798C198.806 14.8798 198.611 14.9187 198.43 14.9943C198.249 15.0699 198.084 15.1807 197.946 15.3204C197.808 15.46 197.698 15.6257 197.624 15.8079C197.55 15.9901 197.512 16.1853 197.513 16.3821ZM187.055 12.4248C187.053 12.0483 186.94 11.6808 186.73 11.3687C186.52 11.0566 186.223 10.8138 185.876 10.671C185.528 10.5281 185.147 10.4917 184.779 10.5663C184.411 10.6408 184.073 10.823 183.808 11.0898C183.544 11.3567 183.364 11.6962 183.291 12.0656C183.219 12.4349 183.257 12.8176 183.401 13.1652C183.545 13.5128 183.788 13.8099 184.1 14.0188C184.413 14.2278 184.78 14.3393 185.155 14.3393C185.405 14.3393 185.653 14.2897 185.884 14.1934C186.115 14.0971 186.325 13.9559 186.502 13.778C186.678 13.6001 186.818 13.389 186.913 13.1567C187.008 12.9245 187.056 12.6757 187.055 12.4248ZM193.449 16.373C193.447 15.9965 193.334 15.629 193.124 15.3169C192.914 15.0047 192.617 14.762 192.269 14.6191C191.922 14.4763 191.54 14.4399 191.173 14.5145C190.805 14.589 190.467 14.7712 190.202 15.038C189.937 15.3049 189.757 15.6444 189.685 16.0137C189.612 16.3831 189.65 16.7657 189.794 17.1134C189.938 17.461 190.182 17.7581 190.494 17.967C190.806 18.176 191.173 18.2875 191.549 18.2875C191.799 18.2875 192.047 18.2379 192.278 18.1416C192.509 18.0453 192.719 17.9041 192.895 17.7262C193.072 17.5483 193.212 17.3372 193.307 17.1049C193.402 16.8727 193.45 16.6239 193.449 16.373ZM198.436 22.0067C198.436 21.628 198.324 21.2579 198.114 20.943C197.904 20.6282 197.606 20.3828 197.257 20.2379C196.908 20.093 196.525 20.055 196.154 20.1289C195.784 20.2028 195.444 20.3851 195.177 20.6529C194.91 20.9206 194.728 21.2618 194.654 21.6332C194.581 22.0046 194.619 22.3895 194.763 22.7394C194.907 23.0892 195.152 23.3882 195.466 23.5986C195.78 23.809 196.149 23.9212 196.527 23.9212C196.778 23.9225 197.026 23.8738 197.259 23.778C197.491 23.6822 197.702 23.5412 197.879 23.3632C198.057 23.1852 198.197 22.9736 198.293 22.7408C198.388 22.508 198.437 22.2584 198.436 22.0067ZM184.762 0.580179C184.775 0.446876 184.736 0.313802 184.652 0.209388C184.568 0.104974 184.447 0.0375016 184.315 0.0213862C184.179 0.0111247 184.046 0.0542058 183.942 0.141461C183.837 0.228716 183.771 0.353255 183.758 0.488574C183.747 0.62422 183.79 0.758516 183.877 0.86288C183.964 0.967244 184.088 1.03344 184.223 1.04737C184.289 1.05366 184.356 1.04678 184.419 1.02713C184.483 1.00748 184.542 0.975433 184.593 0.932852C184.643 0.89027 184.686 0.837993 184.716 0.779035C184.747 0.720077 184.766 0.655605 184.771 0.58934M197.504 5.22457C197.51 5.15836 197.503 5.09155 197.484 5.02801C197.464 4.96446 197.432 4.90544 197.39 4.85434C197.347 4.80324 197.295 4.76108 197.236 4.73029C197.178 4.6995 197.113 4.68069 197.047 4.67494C196.912 4.67969 196.785 4.73679 196.691 4.83421C196.597 4.93162 196.545 5.06173 196.545 5.19709C196.549 5.31503 196.593 5.42813 196.669 5.51796C196.745 5.6078 196.85 5.66906 196.965 5.69176C197.099 5.70191 197.232 5.65855 197.335 5.57109C197.437 5.48363 197.501 5.35912 197.513 5.22457M207.515 12.4248C207.521 12.3573 207.514 12.2893 207.494 12.2247C207.474 12.16 207.441 12.1 207.398 12.0481C207.354 11.9961 207.301 11.9533 207.241 11.922C207.182 11.8908 207.116 11.8717 207.049 11.866C206.983 11.8597 206.916 11.8665 206.853 11.8862C206.789 11.9059 206.731 11.9379 206.68 11.9805C206.629 12.0231 206.587 12.0753 206.556 12.1343C206.525 12.1933 206.507 12.2577 206.501 12.324C206.476 12.4574 206.505 12.5951 206.58 12.7079C206.655 12.8207 206.771 12.8999 206.903 12.9286C207.037 12.9504 207.174 12.9199 207.286 12.8431C207.398 12.7664 207.477 12.6495 207.506 12.5164C207.51 12.4829 207.51 12.449 207.506 12.4156M190.197 5.76505C190.207 5.57465 190.161 5.3855 190.064 5.22118C189.968 5.05686 189.826 4.92466 189.655 4.84104C189.484 4.75743 189.292 4.72611 189.104 4.75099C188.915 4.77588 188.738 4.85586 188.595 4.98097C188.451 5.10608 188.348 5.27078 188.297 5.45452C188.246 5.63827 188.251 5.83293 188.309 6.01423C188.368 6.19554 188.479 6.35545 188.628 6.47404C188.777 6.59263 188.957 6.66464 189.147 6.6811C189.276 6.69234 189.406 6.67736 189.53 6.63705C189.653 6.59673 189.767 6.53191 189.865 6.44644C189.963 6.36097 190.043 6.2566 190.1 6.13954C190.157 6.02248 190.19 5.89512 190.197 5.76505ZM199.906 10.6385C199.917 10.5087 199.902 10.378 199.862 10.2541C199.822 10.1303 199.757 10.0158 199.672 9.91749C199.587 9.8192 199.483 9.73911 199.366 9.68199C199.249 9.62487 199.122 9.59188 198.993 9.58499C198.865 9.56303 198.733 9.56722 198.607 9.59732C198.48 9.62742 198.361 9.68281 198.256 9.76018C198.151 9.83754 198.063 9.9353 197.997 10.0476C197.93 10.1599 197.887 10.2845 197.87 10.4138C197.853 10.5432 197.862 10.6747 197.897 10.8005C197.931 10.9263 197.991 11.0438 198.072 11.146C198.153 11.2482 198.253 11.333 198.368 11.3953C198.482 11.4576 198.608 11.4962 198.737 11.5087H198.828C198.957 11.52 199.087 11.5049 199.21 11.4645C199.333 11.4241 199.447 11.3591 199.544 11.2736C199.641 11.188 199.72 11.0835 199.776 10.9665C199.832 10.8495 199.864 10.7223 199.87 10.5927M206.519 17.5272C206.329 17.5171 206.141 17.5633 205.977 17.66C205.813 17.7567 205.681 17.8997 205.598 18.071C205.514 18.2424 205.483 18.4345 205.508 18.6236C205.533 18.8126 205.613 18.9901 205.737 19.134C205.862 19.2779 206.026 19.3817 206.209 19.4326C206.393 19.4835 206.587 19.4792 206.768 19.4202C206.948 19.3612 207.108 19.2501 207.226 19.1008C207.344 18.9515 207.416 18.7706 207.432 18.5806C207.444 18.4509 207.429 18.3202 207.389 18.1963C207.348 18.0725 207.284 17.958 207.198 17.8597C207.113 17.7614 207.009 17.6813 206.892 17.6242C206.776 17.5671 206.649 17.5341 206.519 17.5272ZM177.556 3.09017C177.362 3.08836 177.173 3.14408 177.011 3.25028C176.85 3.35647 176.723 3.50838 176.647 3.68678C176.572 3.86518 176.55 4.06207 176.586 4.25254C176.622 4.44302 176.714 4.61853 176.849 4.75689C176.984 4.89524 177.158 4.99022 177.347 5.02982C177.536 5.06941 177.733 5.05185 177.912 4.97934C178.091 4.90684 178.245 4.78265 178.354 4.62248C178.463 4.46231 178.522 4.27335 178.524 4.07951C178.525 3.95165 178.501 3.82483 178.453 3.70647C178.404 3.58811 178.333 3.48058 178.243 3.39017C178.153 3.29975 178.046 3.22828 177.928 3.17991C177.81 3.13155 177.683 3.10727 177.556 3.10849M172.843 5.77421C172.546 5.7724 172.256 5.85874 172.009 6.02231C171.762 6.18588 171.568 6.41934 171.453 6.69315C171.338 6.96697 171.307 7.26885 171.363 7.56061C171.419 7.85238 171.56 8.12094 171.768 8.33232C171.976 8.5437 172.242 8.68841 172.532 8.74815C172.823 8.8079 173.124 8.77999 173.398 8.66796C173.673 8.55593 173.908 8.36482 174.074 8.11878C174.24 7.87273 174.33 7.58282 174.331 7.2857C174.331 6.88968 174.175 6.50989 173.895 6.22987C173.616 5.94984 173.237 5.79253 172.843 5.79253M163.389 8.95291C163.093 8.95111 162.803 9.03745 162.555 9.20102C162.308 9.36459 162.115 9.59804 162 9.87186C161.885 10.1457 161.853 10.4476 161.909 10.7393C161.965 11.0311 162.106 11.2996 162.314 11.511C162.523 11.7224 162.789 11.8671 163.079 11.9269C163.369 11.9866 163.67 11.9587 163.945 11.8467C164.219 11.7346 164.454 11.5435 164.62 11.2975C164.786 11.0514 164.876 10.7615 164.878 10.4644C164.876 10.0683 164.718 9.68891 164.44 9.40794C164.161 9.12698 163.784 8.96687 163.389 8.96208M149.551 31.5611C149.255 31.5593 148.965 31.6457 148.718 31.8092C148.47 31.9728 148.277 32.2063 148.162 32.4801C148.047 32.7539 148.015 33.0558 148.071 33.3475C148.127 33.6393 148.268 33.9079 148.477 34.1192C148.685 34.3306 148.951 34.4753 149.241 34.5351C149.531 34.5948 149.833 34.5669 150.107 34.4549C150.381 34.3429 150.617 34.1517 150.783 33.9057C150.949 33.6597 151.038 33.3697 151.04 33.0726C151.04 32.8765 151.002 32.6824 150.927 32.5012C150.852 32.3201 150.742 32.1554 150.604 32.0168C150.466 31.8781 150.302 31.7682 150.121 31.6931C149.94 31.6181 149.747 31.5795 149.551 31.5795M151.378 22.7579C151.082 22.756 150.792 22.8424 150.544 23.006C150.297 23.1695 150.104 23.403 149.989 23.6768C149.874 23.9506 149.842 24.2525 149.898 24.5443C149.954 24.836 150.095 25.1046 150.303 25.316C150.512 25.5273 150.778 25.6721 151.068 25.7318C151.358 25.7915 151.659 25.7636 151.934 25.6516C152.208 25.5396 152.443 25.3485 152.609 25.1024C152.775 24.8564 152.865 24.5665 152.867 24.2693C152.877 23.8764 152.732 23.4953 152.463 23.2089C152.195 22.9225 151.825 22.7539 151.433 22.7395M156.192 14.8706C155.895 14.8688 155.605 14.9552 155.358 15.1187C155.111 15.2823 154.917 15.5158 154.802 15.7896C154.687 16.0634 154.656 16.3653 154.712 16.657C154.768 16.9488 154.909 17.2174 155.117 17.4287C155.325 17.6401 155.591 17.7848 155.881 17.8446C156.172 17.9043 156.473 17.8764 156.747 17.7644C157.022 17.6524 157.257 17.4612 157.423 17.2152C157.589 16.9692 157.679 16.6792 157.68 16.3821C157.678 15.986 157.521 15.6066 157.242 15.3257C156.964 15.0447 156.587 14.8846 156.192 14.8798M177.556 56.7068C177.933 56.7086 178.303 56.5981 178.618 56.3892C178.933 56.1804 179.179 55.8825 179.325 55.5334C179.471 55.1843 179.511 54.7995 179.439 54.4278C179.367 54.056 179.187 53.714 178.921 53.445C178.655 53.176 178.316 52.992 177.946 52.9163C177.576 52.8407 177.192 52.8768 176.843 53.02C176.493 53.1632 176.194 53.4072 175.983 53.721C175.771 54.0348 175.658 54.4044 175.656 54.7831C175.656 55.2893 175.856 55.7749 176.212 56.1337C176.568 56.4925 177.051 56.6952 177.556 56.6977M177.556 13.2034C177.933 13.2052 178.303 13.0947 178.618 12.8858C178.933 12.677 179.179 12.3791 179.325 12.03C179.471 11.6808 179.511 11.2961 179.439 10.9243C179.367 10.5526 179.187 10.2106 178.921 9.94157C178.655 9.67254 178.316 9.48857 177.946 9.41292C177.576 9.33727 177.192 9.37334 176.843 9.51657C176.493 9.6598 176.194 9.90375 175.983 10.2176C175.771 10.5314 175.658 10.901 175.656 11.2797C175.656 11.7859 175.856 12.2715 176.212 12.6303C176.568 12.989 177.051 13.1918 177.556 13.1942M169.975 14.321C170.352 14.3228 170.722 14.2123 171.037 14.0034C171.352 13.7945 171.598 13.4967 171.744 13.1476C171.89 12.7984 171.93 12.4137 171.858 12.0419C171.786 11.6702 171.606 11.3282 171.34 11.0592C171.074 10.7901 170.735 10.6062 170.365 10.5305C169.995 10.4549 169.611 10.4909 169.262 10.6342C168.912 10.7774 168.613 11.0213 168.402 11.3352C168.19 11.649 168.077 12.0186 168.075 12.3973C168.074 12.6475 168.122 12.8955 168.216 13.1271C168.31 13.3588 168.449 13.5695 168.625 13.7473C168.8 13.9251 169.009 14.0664 169.239 14.1633C169.469 14.2602 169.716 14.3106 169.965 14.3118M163.572 18.26C163.949 18.2618 164.319 18.1513 164.634 17.9424C164.949 17.7336 165.195 17.4357 165.341 17.0866C165.487 16.7375 165.527 16.3527 165.455 15.981C165.383 15.6092 165.203 15.2672 164.937 14.9982C164.671 14.7292 164.332 14.5452 163.962 14.4695C163.592 14.3939 163.208 14.43 162.859 14.5732C162.509 14.7164 162.21 14.9604 161.999 15.2742C161.787 15.588 161.674 15.9577 161.672 16.3363C161.671 16.5865 161.719 16.8345 161.813 17.0662C161.907 17.2978 162.046 17.5085 162.222 17.6863C162.397 17.8641 162.606 18.0055 162.836 18.1023C163.066 18.1992 163.313 18.2497 163.563 18.2509M158.521 23.9121C158.899 23.9283 159.274 23.8312 159.598 23.633C159.921 23.4347 160.178 23.1445 160.337 22.7991C160.495 22.4537 160.547 22.0689 160.487 21.6937C160.426 21.3184 160.256 20.9697 159.997 20.692C159.738 20.4143 159.403 20.2201 159.034 20.1342C158.664 20.0483 158.278 20.0746 157.924 20.2097C157.57 20.3448 157.263 20.5827 157.044 20.8929C156.825 21.2031 156.703 21.5717 156.694 21.9517C156.693 22.2019 156.741 22.45 156.835 22.6816C156.929 22.9132 157.068 23.1239 157.244 23.3017C157.42 23.4795 157.628 23.6209 157.858 23.7177C158.088 23.8146 158.335 23.8651 158.585 23.8663M156.511 30.984C156.889 30.9858 157.258 30.8753 157.573 30.6664C157.888 30.4576 158.134 30.1597 158.281 29.8106C158.427 29.4615 158.466 29.0767 158.395 28.705C158.323 28.3332 158.142 27.9912 157.877 27.7222C157.611 27.4532 157.272 27.2692 156.902 27.1935C156.532 27.1179 156.148 27.154 155.798 27.2972C155.449 27.4404 155.15 27.6844 154.938 27.9982C154.727 28.312 154.613 28.6816 154.611 29.0603C154.611 29.5656 154.812 30.0503 155.168 30.4076C155.524 30.765 156.007 30.9657 156.511 30.9657M170.897 1.04737C171.032 1.03344 171.156 0.967244 171.243 0.86288C171.33 0.758516 171.373 0.62422 171.363 0.488574C171.349 0.353255 171.283 0.228716 171.179 0.141461C171.075 0.0542058 170.941 0.0111247 170.806 0.0213862C170.739 0.0270812 170.674 0.0461782 170.614 0.0775479C170.555 0.108918 170.502 0.151923 170.46 0.204021C170.417 0.256118 170.385 0.31625 170.366 0.38086C170.347 0.44547 170.342 0.513246 170.349 0.580179C170.354 0.646405 170.371 0.711061 170.401 0.77043C170.431 0.8298 170.472 0.882713 170.522 0.926127C170.572 0.969542 170.63 1.0026 170.693 1.02341C170.756 1.04422 170.822 1.05236 170.888 1.04737M158.165 5.6826C158.231 5.67796 158.295 5.66028 158.354 5.63057C158.413 5.60086 158.466 5.55971 158.509 5.50948C158.553 5.45926 158.586 5.40095 158.606 5.33791C158.627 5.27486 158.635 5.20833 158.63 5.14213C158.619 5.00759 158.555 4.88308 158.452 4.79561C158.349 4.70815 158.217 4.66479 158.082 4.67494C158.016 4.67958 157.952 4.69726 157.893 4.72697C157.833 4.75668 157.781 4.79783 157.737 4.84806C157.694 4.89828 157.661 4.95659 157.64 5.01964C157.62 5.08268 157.612 5.14921 157.617 5.21541C157.628 5.34996 157.692 5.47447 157.795 5.56193C157.897 5.64939 158.03 5.69275 158.165 5.6826ZM213.315 45.7233C213.45 45.7233 213.58 45.6693 213.676 45.5731C213.772 45.4769 213.826 45.3464 213.826 45.2103C213.826 45.0743 213.772 44.9438 213.676 44.8476C213.58 44.7514 213.45 44.6973 213.315 44.6973H213.205C213.139 44.702 213.075 44.7197 213.015 44.7494C212.956 44.7791 212.903 44.8202 212.86 44.8705C212.817 44.9207 212.784 44.979 212.763 45.042C212.742 45.1051 212.734 45.1716 212.739 45.2378C212.751 45.3724 212.815 45.4969 212.918 45.5843C213.02 45.6718 213.153 45.7152 213.287 45.705M207.186 54.2243C207.32 54.2082 207.443 54.1414 207.529 54.0376C207.616 53.9337 207.66 53.8006 207.652 53.6655C207.638 53.5302 207.572 53.4057 207.468 53.3184C207.364 53.2312 207.23 53.1881 207.095 53.1983C206.96 53.2123 206.835 53.2785 206.748 53.3828C206.661 53.4872 206.618 53.6215 206.629 53.7571C206.634 53.8246 206.653 53.8903 206.685 53.9503C206.716 54.0104 206.758 54.0637 206.81 54.1071C206.862 54.1505 206.922 54.1833 206.986 54.2034C207.051 54.2235 207.119 54.2306 207.186 54.2243ZM197.029 61.397C197.095 61.3924 197.16 61.3747 197.219 61.345C197.278 61.3153 197.331 61.2741 197.374 61.2239C197.417 61.1737 197.45 61.1154 197.471 61.0523C197.492 60.9893 197.5 60.9227 197.495 60.8565C197.495 60.7205 197.441 60.59 197.345 60.4938C197.249 60.3976 197.119 60.3436 196.983 60.3436C196.848 60.3436 196.718 60.3976 196.622 60.4938C196.526 60.59 196.472 60.7205 196.472 60.8565C196.467 60.89 196.467 60.9239 196.472 60.9573C196.478 61.0236 196.496 61.0881 196.527 61.147C196.558 61.206 196.6 61.2582 196.651 61.3008C196.702 61.3434 196.761 61.3754 196.824 61.3951C196.887 61.4148 196.954 61.4216 197.02 61.4153M184.315 65.9773C184.45 65.9664 184.576 65.9018 184.664 65.7979C184.753 65.694 184.796 65.5591 184.785 65.4231C184.774 65.287 184.71 65.1609 184.606 65.0724C184.503 64.9839 184.368 64.9404 184.233 64.9513C184.097 64.9622 183.971 65.0268 183.883 65.1307C183.795 65.2346 183.751 65.3695 183.762 65.5055C183.773 65.6416 183.837 65.7677 183.941 65.8562C184.045 65.9447 184.179 65.9882 184.315 65.9773ZM170.906 65.9773C171.042 65.9651 171.167 65.8994 171.255 65.7946C171.342 65.6898 171.384 65.5546 171.372 65.4185C171.36 65.2824 171.294 65.1568 171.19 65.0692C171.085 64.9816 170.951 64.9392 170.815 64.9513C170.748 64.9567 170.682 64.9753 170.622 65.0061C170.562 65.0369 170.509 65.0792 170.465 65.1307C170.377 65.2346 170.334 65.3695 170.345 65.5055C170.355 65.6416 170.42 65.7677 170.523 65.8562C170.627 65.9447 170.761 65.9882 170.897 65.9773M158.165 61.3329C158.231 61.3283 158.295 61.3106 158.354 61.2809C158.413 61.2512 158.466 61.21 158.509 61.1598C158.553 61.1096 158.586 61.0512 158.606 60.9882C158.627 60.9252 158.635 60.8586 158.63 60.7924C158.619 60.6579 158.555 60.5334 158.452 60.4459C158.349 60.3584 158.217 60.3151 158.082 60.3252C158.016 60.3299 157.952 60.3476 157.893 60.3773C157.833 60.407 157.781 60.4481 157.737 60.4984C157.694 60.5486 157.661 60.6069 157.64 60.6699C157.62 60.733 157.612 60.7995 157.617 60.8657C157.628 61.0002 157.692 61.1248 157.795 61.2122C157.897 61.2997 158.03 61.343 158.165 61.3329ZM148.117 54.1419C148.185 54.1372 148.25 54.1193 148.311 54.0891C148.371 54.059 148.425 54.0171 148.469 53.9661C148.513 53.915 148.546 53.8557 148.568 53.7915C148.589 53.7274 148.597 53.6596 148.592 53.5922C148.587 53.5249 148.57 53.4591 148.539 53.3987C148.509 53.3383 148.468 53.2845 148.417 53.2402C148.366 53.196 148.307 53.1622 148.243 53.1409C148.179 53.1196 148.111 53.1111 148.044 53.1159C147.977 53.1207 147.912 53.1387 147.851 53.169C147.791 53.1992 147.737 53.241 147.693 53.292C147.649 53.3431 147.616 53.4023 147.594 53.4664C147.573 53.5305 147.565 53.5982 147.569 53.6655C147.581 53.8001 147.645 53.9246 147.748 54.012C147.85 54.0995 147.983 54.1429 148.117 54.1327M141.833 45.7142C141.969 45.7142 142.099 45.6601 142.195 45.5639C142.291 45.4677 142.345 45.3372 142.345 45.2012C142.345 45.0651 142.291 44.9346 142.195 44.8384C142.099 44.7422 141.969 44.6882 141.833 44.6882H141.724C141.6 44.7118 141.489 44.7806 141.412 44.8812C141.336 44.9819 141.299 45.1075 141.309 45.2336C141.319 45.3598 141.376 45.4778 141.467 45.5648C141.559 45.6518 141.68 45.7018 141.806 45.705M148.163 12.8461C148.23 12.8415 148.296 12.8236 148.356 12.7934C148.416 12.7632 148.47 12.7214 148.514 12.6703C148.559 12.6193 148.592 12.5599 148.613 12.4958C148.635 12.4316 148.643 12.3639 148.638 12.2965C148.633 12.2291 148.615 12.1634 148.585 12.103C148.555 12.0426 148.513 11.9887 148.462 11.9445C148.411 11.9003 148.352 11.8665 148.288 11.8452C148.225 11.8239 148.157 11.8154 148.09 11.8202C148.023 11.825 147.957 11.843 147.897 11.8732C147.837 11.9035 147.783 11.9453 147.739 11.9963C147.695 12.0474 147.661 12.1066 147.64 12.1707C147.619 12.2348 147.61 12.3024 147.615 12.3698C147.627 12.5043 147.691 12.6288 147.793 12.7163C147.896 12.8038 148.029 12.8471 148.163 12.837M165.965 6.59866C166.212 6.56578 166.436 6.43887 166.592 6.24426C166.748 6.04965 166.823 5.80229 166.802 5.55356C166.781 5.30482 166.665 5.07381 166.479 4.90849C166.292 4.74318 166.049 4.65626 165.8 4.66578C165.558 4.69941 165.337 4.82398 165.182 5.01438C165.028 5.20479 164.951 5.44689 164.967 5.69194C164.983 5.93698 165.091 6.16676 165.27 6.33501C165.448 6.50325 165.683 6.59746 165.928 6.59866M156.21 11.4721C156.448 11.4601 156.672 11.3554 156.834 11.1802C156.996 11.0049 157.083 10.7732 157.077 10.5342C157.071 10.2953 156.973 10.0682 156.802 9.90136C156.631 9.7345 156.403 9.6411 156.164 9.6411C155.926 9.6411 155.697 9.7345 155.527 9.90136C155.356 10.0682 155.257 10.2953 155.251 10.5342C155.245 10.7732 155.333 11.0049 155.495 11.1802C155.657 11.3554 155.881 11.4601 156.119 11.4721H156.21ZM147.642 18.5806C147.642 18.8236 147.739 19.0566 147.91 19.2284C148.081 19.4002 148.314 19.4967 148.556 19.4967H148.693C148.825 19.4948 148.955 19.4657 149.076 19.4114C149.196 19.357 149.304 19.2785 149.393 19.1807C149.482 19.0829 149.551 18.9678 149.594 18.8425C149.637 18.7173 149.654 18.5845 149.644 18.4524C149.634 18.3202 149.597 18.1916 149.536 18.0743C149.474 17.957 149.39 17.8535 149.287 17.7703C149.184 17.687 149.065 17.6258 148.938 17.5903C148.811 17.5548 148.678 17.5458 148.547 17.5638C148.291 17.578 148.052 17.6929 147.881 17.8834C147.71 18.0739 147.621 18.3245 147.633 18.5806M210.337 37.03C210.21 37.0408 210.086 37.0766 209.973 37.1354C209.859 37.1942 209.759 37.2749 209.676 37.3727C209.594 37.4705 209.532 37.5836 209.493 37.7056C209.455 37.8275 209.44 37.9559 209.451 38.0834C209.462 38.211 209.498 38.3351 209.556 38.4488C209.615 38.5624 209.695 38.6634 209.793 38.7459C209.89 38.8284 210.003 38.8909 210.125 38.9296C210.246 38.9684 210.374 38.9828 210.501 38.972C210.758 38.9501 210.996 38.8269 211.162 38.6293C211.328 38.4317 211.409 38.1761 211.387 37.9185C211.366 37.661 211.243 37.4227 211.046 37.2561C210.849 37.0894 210.594 37.0081 210.337 37.03ZM206.574 46.4653C206.327 46.4982 206.102 46.6251 205.947 46.8197C205.791 47.0143 205.716 47.2617 205.737 47.5104C205.758 47.7592 205.874 47.9902 206.06 48.1555C206.247 48.3208 206.49 48.4077 206.738 48.3982C206.981 48.3646 207.202 48.24 207.356 48.0496C207.511 47.8592 207.588 47.6171 207.572 47.3721C207.556 47.127 207.447 46.8972 207.269 46.729C207.091 46.5607 206.855 46.4665 206.61 46.4653M199.093 54.4808C198.961 54.4828 198.831 54.5118 198.71 54.5661C198.59 54.6205 198.482 54.699 198.393 54.7968C198.304 54.8947 198.235 55.0097 198.192 55.135C198.149 55.2602 198.132 55.393 198.142 55.5251C198.152 55.6573 198.189 55.7859 198.25 55.9032C198.312 56.0205 198.396 56.124 198.499 56.2072C198.602 56.2905 198.721 56.3517 198.848 56.3872C198.975 56.4227 199.109 56.4317 199.239 56.4137C199.495 56.3995 199.734 56.2846 199.905 56.0941C200.076 55.9036 200.165 55.653 200.153 55.3969C200.153 55.1539 200.057 54.9209 199.885 54.7491C199.714 54.5773 199.482 54.4808 199.239 54.4808H199.102M189.156 59.3634C188.9 59.3776 188.661 59.4925 188.49 59.683C188.319 59.8735 188.23 60.1241 188.242 60.3802C188.252 60.6377 188.363 60.8808 188.552 61.0561C188.74 61.2313 188.99 61.3243 189.247 61.3146C189.504 61.3049 189.746 61.1932 189.921 61.0043C190.096 60.8153 190.188 60.5644 190.179 60.3069V60.2153C190.173 60.0889 190.142 59.965 190.088 59.8505C190.035 59.7361 189.959 59.6333 189.866 59.5483C189.772 59.4632 189.663 59.3974 189.545 59.3546C189.426 59.3119 189.3 59.2931 189.174 59.2993M177.446 60.939C177.319 60.9438 177.194 60.9737 177.078 61.0269C176.963 61.0802 176.859 61.1557 176.772 61.2493C176.686 61.3429 176.618 61.4526 176.574 61.5723C176.53 61.6919 176.51 61.8191 176.514 61.9466C176.519 62.0742 176.549 62.1995 176.602 62.3155C176.655 62.4314 176.731 62.5358 176.824 62.6225C176.917 62.7093 177.027 62.7768 177.146 62.8211C177.265 62.8655 177.392 62.8858 177.519 62.881H177.61C177.857 62.8482 178.082 62.7212 178.238 62.5266C178.394 62.332 178.469 62.0847 178.448 61.8359C178.427 61.5872 178.311 61.3562 178.124 61.1909C177.938 61.0255 177.695 60.9386 177.446 60.9482M166.23 59.6565C166.04 59.673 165.86 59.745 165.711 59.8636C165.562 59.9822 165.451 60.1421 165.393 60.3234C165.334 60.5047 165.329 60.6993 165.38 60.8831C165.431 61.0668 165.535 61.2315 165.678 61.3566C165.821 61.4818 165.998 61.5617 166.187 61.5866C166.375 61.6115 166.567 61.5802 166.738 61.4966C166.909 61.413 167.051 61.2807 167.148 61.1164C167.244 60.9521 167.29 60.763 167.28 60.5726C167.273 60.4425 167.24 60.3151 167.183 60.1981C167.126 60.081 167.047 59.9766 166.949 59.8912C166.851 59.8057 166.736 59.7409 166.613 59.7006C166.489 59.6603 166.359 59.6453 166.23 59.6565ZM156.082 54.5175C155.825 54.5272 155.583 54.6388 155.408 54.8278C155.233 55.0167 155.141 55.2676 155.15 55.5251C155.16 55.7826 155.271 56.0258 155.46 56.201C155.648 56.3762 155.898 56.4692 156.155 56.4595H156.246C156.493 56.4266 156.718 56.2997 156.874 56.1051C157.03 55.9105 157.105 55.6631 157.084 55.4144C157.062 55.1656 156.947 54.9346 156.76 54.7693C156.574 54.604 156.331 54.5171 156.082 54.5266M148.547 46.502C148.3 46.5348 148.075 46.6618 147.919 46.8564C147.763 47.051 147.688 47.2983 147.709 47.5471C147.731 47.7958 147.846 48.0268 148.033 48.1921C148.219 48.3575 148.462 48.4444 148.711 48.4348C148.954 48.4012 149.174 48.2767 149.329 48.0863C149.484 47.8958 149.561 47.6537 149.545 47.4087C149.528 47.1637 149.42 46.9339 149.242 46.7656C149.063 46.5974 148.828 46.5032 148.583 46.502M144.382 27.8969C144.135 27.9298 143.91 28.0567 143.754 28.2513C143.598 28.4459 143.523 28.6933 143.544 28.942C143.566 29.1908 143.681 29.4218 143.868 29.5871C144.054 29.7524 144.297 29.8393 144.546 29.8298C144.789 29.7962 145.009 29.6716 145.164 29.4812C145.319 29.2908 145.396 29.0487 145.379 28.8036C145.363 28.5586 145.255 28.3288 145.077 28.1606C144.898 27.9923 144.663 27.8981 144.418 27.8969M171.948 53.5464C171.948 53.1696 171.836 52.8012 171.627 52.4879C171.419 52.1745 171.122 51.9303 170.775 51.7861C170.428 51.6419 170.046 51.6041 169.677 51.6777C169.309 51.7512 168.97 51.9326 168.704 52.1991C168.439 52.4656 168.258 52.8051 168.184 53.1747C168.111 53.5443 168.149 53.9274 168.292 54.2756C168.436 54.6238 168.68 54.9213 168.992 55.1307C169.305 55.3401 169.672 55.4518 170.048 55.4518C170.552 55.4518 171.035 55.2511 171.391 54.8937C171.747 54.5364 171.948 54.0518 171.948 53.5464ZM185.064 51.6319C184.686 51.6301 184.317 51.7406 184.002 51.9495C183.687 52.1583 183.441 52.4562 183.294 52.8053C183.148 53.1544 183.109 53.5392 183.181 53.9109C183.252 54.2827 183.433 54.6247 183.698 54.8937C183.964 55.1627 184.303 55.3467 184.673 55.4224C185.043 55.498 185.427 55.4619 185.777 55.3187C186.126 55.1755 186.425 54.9315 186.637 54.6177C186.848 54.3039 186.962 53.9342 186.964 53.5556C186.965 53.3054 186.917 53.0574 186.822 52.8257C186.728 52.5941 186.589 52.3834 186.414 52.2056C186.238 52.0278 186.029 51.8864 185.799 51.7896C185.569 51.6927 185.322 51.6422 185.073 51.641M191.585 47.8486C191.207 47.8395 190.834 47.9436 190.514 48.1475C190.195 48.3515 189.943 48.6462 189.791 48.994C189.639 49.3419 189.594 49.7272 189.661 50.1011C189.728 50.4749 189.904 50.8203 190.167 51.0934C190.43 51.3664 190.769 51.5548 191.139 51.6345C191.509 51.7142 191.895 51.6817 192.247 51.541C192.598 51.4004 192.9 51.158 193.115 50.8447C193.329 50.5313 193.445 50.1612 193.449 49.7814C193.452 49.5242 193.404 49.2688 193.308 49.0304C193.212 48.792 193.068 48.5754 192.887 48.3935C192.706 48.2116 192.49 48.068 192.252 47.9712C192.014 47.8745 191.76 47.8265 191.503 47.8303M198.408 43.992C198.406 43.6155 198.293 43.2481 198.084 42.9359C197.874 42.6238 197.576 42.381 197.229 42.2382C196.882 42.0954 196.5 42.0589 196.132 42.1335C195.764 42.208 195.427 42.3902 195.162 42.6571C194.897 42.9239 194.717 43.2634 194.644 43.6328C194.572 44.0021 194.61 44.3848 194.754 44.7324C194.898 45.08 195.142 45.3771 195.454 45.586C195.766 45.795 196.133 45.9065 196.508 45.9065C196.759 45.9065 197.006 45.857 197.238 45.7606C197.469 45.6643 197.678 45.5231 197.855 45.3452C198.032 45.1673 198.171 44.9562 198.266 44.724C198.361 44.4917 198.409 44.243 198.408 43.992ZM163.617 47.7478C163.24 47.746 162.87 47.8565 162.555 48.0654C162.24 48.2743 161.994 48.5721 161.848 48.9212C161.702 49.2704 161.662 49.6551 161.734 50.0269C161.806 50.3986 161.986 50.7406 162.252 51.0096C162.518 51.2787 162.857 51.4626 163.227 51.5383C163.597 51.6139 163.981 51.5779 164.33 51.4346C164.68 51.2914 164.979 51.0475 165.19 50.7336C165.402 50.4198 165.515 50.0502 165.517 49.6715C165.518 49.4213 165.471 49.1733 165.376 48.9417C165.282 48.71 165.143 48.4993 164.967 48.3215C164.792 48.1437 164.583 48.0024 164.353 47.9055C164.123 47.8086 163.876 47.7582 163.627 47.757M158.585 42.0958C158.206 42.0921 157.834 42.2018 157.517 42.4108C157.201 42.6197 156.953 42.9186 156.806 43.2691C156.66 43.6197 156.62 44.0062 156.693 44.3793C156.766 44.7523 156.949 45.0952 157.217 45.364C157.485 45.6329 157.827 45.8156 158.199 45.8889C158.571 45.9622 158.956 45.9227 159.305 45.7755C159.655 45.6284 159.953 45.3801 160.161 45.0625C160.37 44.7449 160.479 44.3722 160.475 43.992C160.475 43.4866 160.275 43.002 159.919 42.6447C159.563 42.2873 159.079 42.0866 158.576 42.0866M234.843 25.6709H246.617V41.427H250.754V25.6709H261.496L262.491 22.9227H235.848L234.843 25.6709ZM139.385 22.9227H135.248V41.427H154.118L155.132 38.6789H139.385V22.9227ZM177.848 22.9227L187.822 41.2438H192.252L182.278 22.9685L177.848 22.9227ZM162.777 41.2438H167.207L177.172 22.9685H172.742L162.777 41.2438ZM222.266 36.6636L204.912 22.996H200.756V41.2438H204.893V27.503L222.248 41.2438H226.376V22.9685H222.248L222.266 36.6636ZM305.877 30.7184H293.199C292.897 30.7461 292.592 30.7138 292.302 30.6234C292.012 30.533 291.743 30.3862 291.51 30.1914C291.277 29.9965 291.084 29.7576 290.943 29.488C290.802 29.2185 290.715 28.9238 290.687 28.6206C290.683 28.5535 290.683 28.4862 290.687 28.4191V27.9061C290.692 27.6062 290.756 27.3101 290.875 27.0351C290.995 26.7601 291.167 26.5115 291.383 26.3037C291.599 26.0959 291.853 25.933 292.132 25.8244C292.411 25.7158 292.708 25.6636 293.007 25.6709H310.27L311.275 22.9227H291.948C288.468 22.9227 286.696 25.277 286.65 27.6129V28.8221C286.65 31.1947 288.477 33.6497 292.048 33.6497H304.726C305.028 33.622 305.333 33.6543 305.623 33.7447C305.913 33.8351 306.182 33.9819 306.415 34.1767C306.649 34.3716 306.841 34.6105 306.982 34.8801C307.124 35.1496 307.21 35.4443 307.238 35.7475C307.242 35.8054 307.242 35.8636 307.238 35.9215V36.4345C307.232 36.7341 307.167 37.0296 307.047 37.304C306.928 37.5785 306.755 37.8266 306.54 38.0342C306.324 38.2417 306.07 38.4047 305.792 38.5137C305.514 38.6228 305.217 38.6758 304.918 38.6697H287.655L286.65 41.4179H305.977C309.457 41.4179 311.229 39.0636 311.275 36.7277V35.5093C311.275 33.1459 309.448 30.6909 305.877 30.6909M19.9879 30.6909H7.27357C6.97129 30.7186 6.66653 30.6863 6.37669 30.5959C6.08685 30.5055 5.81761 30.3587 5.58436 30.1639C5.3511 29.9691 5.1584 29.7301 5.01726 29.4606C4.87612 29.1911 4.7893 28.8963 4.76177 28.5931C4.75722 28.5352 4.75722 28.477 4.76177 28.4191V27.9061C4.76652 27.6077 4.82984 27.3132 4.9481 27.0394C5.06635 26.7656 5.23723 26.5179 5.45097 26.3103C5.66472 26.1027 5.91714 25.9394 6.19382 25.8297C6.47049 25.72 6.76601 25.6661 7.06349 25.6709H24.3447L25.386 22.9227H6.02223C2.55138 23.0052 0.770279 25.3228 0.724609 27.6587V28.8679C0.724609 31.2405 2.55138 33.6955 6.12271 33.6955H18.8005C19.1028 33.6678 19.4075 33.7001 19.6974 33.7905C19.9872 33.8809 20.2564 34.0277 20.4897 34.2225C20.7229 34.4174 20.9156 34.6563 21.0568 34.9259C21.1979 35.1954 21.2847 35.4901 21.3123 35.7933C21.3168 35.8512 21.3168 35.9094 21.3123 35.9674V36.4803C21.3063 36.7799 21.2416 37.0754 21.1218 37.3498C21.002 37.6243 20.8294 37.8724 20.614 38.08C20.3985 38.2875 20.1444 38.4505 19.8662 38.5595C19.5879 38.6686 19.291 38.7216 18.9923 38.7155H1.72933L0.724609 41.4637H20.0518C23.5318 41.4637 25.3038 39.1094 25.3494 36.7735V35.5093C25.3494 33.1459 23.5227 30.6909 19.9513 30.6909M271.232 41.2438H275.37V22.9685H271.232V41.2438ZM34.3645 25.6709H46.1289V41.427H50.2665V25.6709H61.0079L62.0127 22.9227H35.3601L34.3645 25.6709ZM90.9943 25.6709L91.999 22.9227H71.0552V41.427H91.0217L92.0264 38.6789H75.2202V33.4848H86.9754L87.971 30.7916H75.1836V25.6709H90.9943ZM108.577 38.6972H124.324L123.31 41.4454H104.439V22.9685H108.577V38.6972Z" fill="#595959"/>
</g>
<defs>
<clipPath id="clip0_337_45">
<rect width="311" height="66" fill="white" transform="translate(0.5)"/>
</clipPath>
</defs>
</svg>
